<svg width="160" height="160" viewBox="0 0 160 160" fill="none" xmlns="http://www.w3.org/2000/svg">
<path d="M53.3931 124.405C53.3931 124.388 53.3931 124.371 53.3931 124.353L53.2291 66.502C53.2291 66.587 53.2161 66.671 53.2081 66.755C53.2011 66.83 53.1981 66.905 53.1861 66.98C53.1721 67.058 53.1481 67.134 53.1261 67.212C53.1081 67.283 53.0931 67.355 53.0681 67.426C53.0441 67.495 53.0081 67.564 52.9791 67.632C52.9451 67.712 52.9141 67.791 52.8721 67.87C52.8431 67.926 52.8041 67.979 52.7701 68.034C52.7111 68.131 52.6531 68.226 52.5831 68.32C52.5481 68.368 52.505 68.415 52.467 68.462C52.371 68.579 52.2691 68.694 52.1561 68.807C52.0941 68.871 52.0291 68.932 51.9611 68.993C51.8971 69.05 51.832 69.106 51.765 69.162C51.68 69.231 51.59 69.299 51.498 69.365C51.425 69.419 51.3501 69.471 51.2721 69.523C51.1211 69.625 50.9651 69.723 50.7961 69.818C50.4451 70.013 50.0651 70.178 49.6731 70.329C49.5741 70.367 49.4761 70.404 49.3751 70.439C49.1221 70.527 48.857 70.596 48.593 70.666C48.365 70.727 48.1391 70.787 47.9041 70.835C47.5011 70.916 47.0941 70.989 46.6771 71.032C46.6721 71.032 46.667 71.032 46.662 71.033C46.197 71.08 45.726 71.098 45.257 71.097C45.209 71.097 45.161 71.099 45.114 71.098C44.657 71.092 44.2031 71.06 43.7541 71.009C43.7031 71.003 43.6521 70.999 43.6031 70.992C43.1721 70.937 42.7511 70.857 42.3391 70.761C42.2601 70.742 42.1801 70.725 42.1021 70.704C41.6811 70.596 41.2721 70.469 40.8831 70.316C40.4371 70.14 40.0131 69.938 39.6241 69.704C38.1581 68.822 37.428 67.686 37.425 66.549L37.5891 124.399C37.5921 125.536 38.3221 126.672 39.7881 127.555C40.1781 127.788 40.6011 127.992 41.0471 128.166C41.0591 128.171 41.068 128.178 41.08 128.182C41.387 128.301 41.705 128.407 42.032 128.498C42.108 128.519 42.1891 128.534 42.2661 128.555C42.3441 128.575 42.4221 128.592 42.5011 128.612C42.6221 128.64 42.7391 128.673 42.8611 128.698C43.1171 128.75 43.3771 128.794 43.6391 128.829C43.6801 128.835 43.7231 128.838 43.7641 128.843C43.8161 128.85 43.8661 128.854 43.9171 128.86C44.0781 128.879 44.2391 128.899 44.4021 128.912C44.6591 128.933 44.917 128.945 45.174 128.95C45.208 128.951 45.2411 128.949 45.2761 128.95C45.3241 128.95 45.3711 128.948 45.4191 128.948C45.6051 128.949 45.79 128.951 45.976 128.944C46.26 128.933 46.543 128.913 46.825 128.884C46.83 128.884 46.8351 128.884 46.8391 128.883C46.8411 128.883 46.8431 128.883 46.8451 128.883C47.1791 128.849 47.509 128.802 47.834 128.743C47.914 128.728 47.987 128.702 48.067 128.685C48.301 128.638 48.5271 128.578 48.7551 128.516C48.9151 128.474 49.0841 128.447 49.2401 128.397C49.3421 128.366 49.436 128.324 49.537 128.289C49.638 128.254 49.7361 128.218 49.8351 128.18C50.2271 128.029 50.6071 127.865 50.9581 127.668C51.0891 127.596 51.214 127.521 51.334 127.444C51.369 127.422 51.3991 127.397 51.4341 127.374C51.5121 127.322 51.586 127.269 51.661 127.215C51.752 127.149 51.8421 127.081 51.9261 127.013C51.9941 126.957 52.06 126.901 52.123 126.843C52.163 126.808 52.2081 126.774 52.2461 126.738C52.2731 126.712 52.2921 126.684 52.3181 126.658C52.4311 126.545 52.5341 126.429 52.6291 126.312C52.6551 126.279 52.6921 126.248 52.7161 126.215C52.7281 126.2 52.7351 126.186 52.7451 126.171C52.8141 126.076 52.874 125.98 52.933 125.883C52.96 125.837 52.9971 125.793 53.0211 125.747C53.0261 125.738 53.0291 125.729 53.0341 125.721C53.0761 125.642 53.1071 125.562 53.1411 125.482C53.1671 125.421 53.2021 125.362 53.2231 125.3C53.2261 125.292 53.227 125.284 53.23 125.277C53.254 125.206 53.2691 125.134 53.2881 125.063C53.3061 124.995 53.3321 124.926 53.3451 124.857C53.3461 124.848 53.346 124.839 53.347 124.831C53.361 124.757 53.3641 124.682 53.3701 124.606C53.3781 124.539 53.3921 124.472 53.3931 124.405Z" fill="#EBE6D3"/>
<path d="M49.5761 62.771C47.3691 61.443 43.7131 61.406 41.4121 62.689C39.1101 63.972 39.0351 66.089 41.2431 67.417C43.4511 68.746 47.1061 68.783 49.4071 67.5C51.7091 66.217 51.7841 64.1 49.5761 62.771Z" fill="#26323F"/>
<path d="M51.176 62.333C51.174 61.502 50.641 60.671 49.569 60.026C49.285 59.855 48.975 59.707 48.649 59.579C48.641 59.576 48.6341 59.571 48.6261 59.567C48.4011 59.48 48.169 59.403 47.93 59.337C47.873 59.321 47.8151 59.31 47.7591 59.296C47.7011 59.281 47.644 59.268 47.586 59.254C47.498 59.233 47.412 59.209 47.323 59.191C47.135 59.153 46.946 59.121 46.754 59.094C46.724 59.09 46.693 59.088 46.662 59.084C46.625 59.079 46.589 59.076 46.552 59.072C46.434 59.058 46.316 59.044 46.196 59.034C46.01 59.019 45.821 59.011 45.632 59.007C45.608 59.006 45.583 59.008 45.559 59.007C45.524 59.007 45.49 59.008 45.455 59.008C45.319 59.008 45.1831 59.006 45.0481 59.011C44.8411 59.019 44.6341 59.033 44.4281 59.055C44.4251 59.055 44.421 59.055 44.417 59.055C44.417 59.055 44.415 59.056 44.413 59.056C44.17 59.08 43.9281 59.115 43.6901 59.158C43.6311 59.169 43.578 59.188 43.52 59.2C43.348 59.234 43.184 59.279 43.017 59.323C42.9 59.354 42.776 59.375 42.662 59.41C42.587 59.433 42.518 59.465 42.444 59.49C42.371 59.515 42.298 59.542 42.227 59.57C41.94 59.68 41.6631 59.8 41.4061 59.943C41.3101 59.997 41.218 60.051 41.131 60.107C41.116 60.117 41.108 60.127 41.093 60.137C40.874 60.279 40.682 60.43 40.513 60.587C40.499 60.6 40.479 60.61 40.465 60.623C40.445 60.643 40.432 60.662 40.413 60.682C40.33 60.765 40.255 60.85 40.185 60.935C40.166 60.959 40.1401 60.982 40.1221 61.005C40.1141 61.016 40.108 61.027 40.101 61.037C40.049 61.106 40.006 61.177 39.963 61.248C39.942 61.281 39.917 61.313 39.898 61.347C39.894 61.354 39.8921 61.361 39.8891 61.367C39.8581 61.424 39.835 61.482 39.81 61.54C39.792 61.585 39.766 61.629 39.75 61.674C39.747 61.68 39.747 61.686 39.745 61.692C39.726 61.744 39.7171 61.796 39.7031 61.846C39.6891 61.897 39.671 61.948 39.661 61.998C39.66 62.004 39.66 62.011 39.659 62.016C39.649 62.072 39.647 62.126 39.642 62.181C39.637 62.23 39.628 62.279 39.627 62.327C39.627 62.34 39.626 62.352 39.627 62.366L39.635 65.111C39.634 65.049 39.644 64.988 39.65 64.926C39.655 64.871 39.657 64.817 39.667 64.761C39.678 64.704 39.695 64.648 39.71 64.591C39.725 64.539 39.734 64.488 39.753 64.436C39.771 64.385 39.796 64.335 39.817 64.285C39.842 64.227 39.865 64.169 39.896 64.112C39.917 64.071 39.945 64.032 39.969 63.992C40.012 63.922 40.055 63.851 40.106 63.782C40.132 63.748 40.163 63.714 40.191 63.679C40.26 63.593 40.336 63.509 40.418 63.426C40.45 63.394 40.484 63.363 40.519 63.331C40.688 63.174 40.88 63.023 41.098 62.881C41.2 62.816 41.301 62.749 41.413 62.688C41.67 62.544 41.9481 62.423 42.2341 62.313C42.3051 62.286 42.378 62.259 42.45 62.234C42.635 62.17 42.83 62.119 43.024 62.067C43.19 62.023 43.355 61.978 43.526 61.944C43.821 61.884 44.119 61.831 44.424 61.799C44.427 61.799 44.4291 61.799 44.4321 61.799C44.7731 61.765 45.118 61.751 45.461 61.752C45.496 61.752 45.5301 61.751 45.5651 61.751C45.8991 61.756 46.231 61.778 46.559 61.816C46.596 61.82 46.633 61.823 46.67 61.828C46.984 61.868 47.292 61.927 47.593 61.997C47.652 62.011 47.709 62.024 47.767 62.039C48.075 62.118 48.373 62.211 48.658 62.322C48.984 62.451 49.2941 62.598 49.5781 62.769C50.6501 63.414 51.183 64.245 51.185 65.076L51.176 62.333Z" fill="#49596E"/>
<path d="M52.644 58.312C48.807 56.002 42.455 55.938 38.455 58.168C34.455 60.397 34.3241 64.077 38.1601 66.387C41.9971 68.696 48.3501 68.76 52.3501 66.53C56.3491 64.3 56.48 60.621 52.644 58.312ZM49.4001 64.755C47.0991 66.038 43.444 66.001 41.2361 64.672C39.0281 63.344 39.1041 61.226 41.4051 59.942C43.7061 58.659 47.3621 58.696 49.5691 60.025C51.7771 61.355 51.7011 63.472 49.4001 64.755Z" fill="#6C7890"/>
<path d="M55.4531 68.279C55.4531 68.256 55.4531 68.235 55.4531 68.212L55.4361 62.32C55.4371 62.427 55.4201 62.534 55.4101 62.64C55.4021 62.736 55.3981 62.831 55.382 62.926C55.364 63.025 55.3331 63.123 55.3071 63.221C55.2831 63.312 55.2651 63.402 55.2341 63.492C55.2031 63.58 55.1591 63.666 55.1211 63.754C55.0771 63.854 55.0381 63.957 54.9841 64.057C54.9471 64.126 54.8981 64.195 54.8571 64.263C54.7821 64.386 54.708 64.509 54.618 64.629C54.573 64.69 54.519 64.748 54.472 64.808C54.351 64.957 54.2211 65.104 54.0771 65.247C53.9971 65.326 53.9151 65.405 53.8281 65.483C53.7481 65.555 53.665 65.627 53.579 65.698C53.472 65.785 53.3581 65.871 53.2421 65.955C53.1481 66.023 53.054 66.092 52.954 66.158C52.762 66.285 52.5641 66.411 52.3501 66.531C52.0481 66.699 51.729 66.849 51.403 66.992C51.307 67.034 51.2091 67.072 51.1111 67.112C50.8641 67.212 50.6111 67.304 50.3521 67.39C50.2621 67.419 50.1721 67.45 50.0811 67.479C49.5711 67.635 49.0431 67.763 48.5041 67.866C48.4201 67.882 48.3361 67.899 48.2511 67.914C47.8901 67.977 47.5241 68.031 47.1551 68.069C47.1431 68.07 47.1321 68.072 47.1201 68.074C46.7771 68.108 46.43 68.132 46.084 68.145C45.95 68.151 45.8151 68.15 45.6811 68.153C45.4871 68.156 45.2921 68.161 45.0981 68.158C44.9461 68.155 44.7941 68.147 44.6431 68.14C44.4711 68.133 44.2991 68.127 44.1291 68.115C43.9771 68.104 43.8261 68.088 43.6761 68.072C43.5061 68.055 43.3361 68.04 43.1681 68.018C43.0261 67.999 42.8861 67.975 42.7451 67.954C42.5631 67.926 42.3811 67.896 42.2021 67.862C42.0741 67.837 41.9491 67.808 41.8231 67.781C41.6131 67.735 41.4031 67.685 41.1981 67.631C41.0831 67.601 40.9701 67.568 40.8571 67.535C40.5431 67.443 40.2371 67.342 39.9391 67.23C39.8791 67.208 39.817 67.188 39.757 67.166C39.571 67.092 39.3911 67.01 39.2111 66.928C39.1191 66.886 39.0221 66.849 38.9321 66.805C38.6651 66.675 38.4081 66.536 38.1601 66.388C36.2991 65.267 35.3711 63.823 35.3671 62.379L35.3841 68.272C35.3881 69.716 36.3161 71.16 38.1781 72.281C38.4241 72.429 38.6821 72.568 38.9481 72.698C39.0381 72.742 39.134 72.779 39.226 72.821C39.407 72.903 39.586 72.985 39.774 73.059C39.789 73.065 39.802 73.072 39.817 73.077C39.861 73.094 39.909 73.105 39.954 73.122C40.252 73.234 40.559 73.336 40.873 73.428C40.926 73.444 40.9751 73.464 41.0271 73.479C41.0881 73.497 41.152 73.507 41.213 73.524C41.418 73.579 41.6261 73.628 41.8371 73.673C41.9191 73.692 41.9981 73.715 42.0811 73.732C42.1261 73.741 42.173 73.747 42.218 73.755C42.397 73.789 42.5771 73.818 42.7591 73.846C42.8631 73.863 42.9651 73.884 43.0701 73.899C43.1071 73.904 43.146 73.907 43.183 73.912C43.351 73.934 43.5211 73.949 43.6901 73.966C43.8071 73.978 43.923 73.994 44.041 74.004C44.075 74.006 44.109 74.006 44.144 74.009C44.315 74.021 44.4861 74.026 44.6581 74.034C44.7791 74.039 44.9001 74.05 45.0211 74.052C45.0511 74.053 45.0831 74.051 45.1131 74.051C45.3061 74.055 45.499 74.05 45.692 74.047C45.807 74.044 45.9231 74.048 46.0391 74.044C46.0601 74.043 46.08 74.04 46.101 74.039C46.448 74.025 46.7931 74.002 47.1371 73.967C47.1371 73.967 47.1401 73.967 47.1421 73.967C47.1521 73.966 47.1621 73.964 47.1711 73.963C47.5411 73.924 47.9051 73.87 48.2681 73.808C48.3111 73.801 48.356 73.797 48.399 73.789C48.44 73.782 48.478 73.768 48.519 73.76C49.059 73.658 49.5871 73.53 50.0981 73.372C50.1251 73.364 50.1571 73.36 50.1841 73.351C50.2481 73.33 50.306 73.304 50.369 73.283C50.628 73.198 50.88 73.105 51.127 73.006C51.226 72.966 51.3241 72.928 51.4211 72.886C51.7471 72.743 52.0661 72.593 52.3671 72.425C52.5331 72.332 52.6921 72.237 52.8451 72.14C52.8901 72.112 52.9271 72.08 52.9711 72.051C53.0711 71.985 53.1651 71.917 53.2591 71.849C53.3751 71.764 53.4881 71.679 53.5951 71.592C53.6821 71.521 53.7651 71.449 53.8461 71.376C53.8971 71.331 53.954 71.288 54.002 71.242C54.036 71.209 54.0611 71.174 54.0941 71.139C54.2381 70.997 54.367 70.85 54.489 70.701C54.522 70.659 54.5681 70.619 54.5991 70.577C54.6141 70.559 54.622 70.54 54.636 70.521C54.725 70.401 54.799 70.279 54.873 70.156C54.908 70.098 54.954 70.042 54.985 69.983C54.992 69.971 54.9951 69.96 55.0011 69.949C55.0551 69.848 55.0951 69.747 55.1391 69.645C55.1721 69.569 55.215 69.493 55.243 69.415C55.247 69.405 55.248 69.395 55.252 69.385C55.283 69.295 55.302 69.204 55.326 69.114C55.348 69.027 55.3811 68.94 55.3961 68.853C55.3981 68.842 55.3981 68.831 55.4001 68.82C55.4171 68.724 55.421 68.629 55.429 68.533C55.435 68.448 55.4511 68.364 55.4531 68.279Z" fill="#49596E"/>
<path d="M56.036 118.841C56.037 118.818 56.037 118.794 56.037 118.771L56.0271 115.326C56.0271 115.439 56.0091 115.553 55.9991 115.665C55.9901 115.767 55.9861 115.867 55.9691 115.968C55.9501 116.072 55.917 116.176 55.89 116.279C55.865 116.375 55.845 116.471 55.812 116.566C55.779 116.659 55.7331 116.751 55.6931 116.842C55.6461 116.949 55.6051 117.057 55.5481 117.163C55.5081 117.237 55.456 117.309 55.412 117.383C55.333 117.512 55.2541 117.642 55.1601 117.769C55.1121 117.833 55.0561 117.895 55.0041 117.958C54.8761 118.115 54.7381 118.271 54.5871 118.423C54.5021 118.507 54.4161 118.59 54.3241 118.673C54.2381 118.749 54.15 118.825 54.058 118.9C53.945 118.993 53.8261 119.083 53.7031 119.172C53.6031 119.244 53.5041 119.317 53.3971 119.387C53.1941 119.522 52.9861 119.655 52.7581 119.783C52.4391 119.961 52.102 120.12 51.757 120.27C51.654 120.315 51.55 120.356 51.446 120.398C51.184 120.503 50.917 120.601 50.644 120.692C50.527 120.73 50.4121 120.771 50.2931 120.806C50.1421 120.852 49.988 120.893 49.834 120.935C49.674 120.977 49.5141 121.02 49.3521 121.058C49.1961 121.094 49.0381 121.126 48.8801 121.159C48.7271 121.189 48.5731 121.221 48.4191 121.247C48.0361 121.313 47.6491 121.37 47.2591 121.411C47.2461 121.412 47.235 121.414 47.222 121.416C46.859 121.453 46.4931 121.477 46.1251 121.492C45.9821 121.498 45.8391 121.497 45.6951 121.5C45.4901 121.503 45.285 121.508 45.08 121.505C44.919 121.502 44.7581 121.493 44.5981 121.486C44.4161 121.479 44.2361 121.472 44.0551 121.46C43.8941 121.448 43.735 121.431 43.575 121.415C43.396 121.397 43.2171 121.38 43.0391 121.357C42.8881 121.337 42.7391 121.312 42.5891 121.289C42.3981 121.259 42.2061 121.228 42.0181 121.192C41.8821 121.166 41.7481 121.134 41.6151 121.105C41.3921 121.056 41.172 121.005 40.954 120.947C40.833 120.915 40.7141 120.881 40.5941 120.846C40.2631 120.749 39.9381 120.642 39.6221 120.524C39.5581 120.5 39.4931 120.48 39.4311 120.456C39.2321 120.378 39.041 120.29 38.851 120.203C38.753 120.159 38.6531 120.12 38.5571 120.073C38.2761 119.935 38.0021 119.789 37.7421 119.632C35.7701 118.445 34.7891 116.918 34.7841 115.39L34.7891 117.112C34.7911 117.715 34.7931 118.318 34.7941 118.835C34.7991 120.364 35.7801 121.892 37.7511 123.078C38.0131 123.235 38.2861 123.382 38.5681 123.519C38.6611 123.565 38.76 123.604 38.856 123.647C39.048 123.735 39.241 123.823 39.442 123.902C39.458 123.908 39.4711 123.916 39.4871 123.922C39.5341 123.941 39.584 123.952 39.631 123.97C39.947 124.089 40.273 124.195 40.605 124.293C40.661 124.31 40.712 124.332 40.769 124.348C40.833 124.366 40.9021 124.378 40.9661 124.395C41.1841 124.453 41.405 124.505 41.627 124.554C41.714 124.573 41.7971 124.598 41.8841 124.616C41.9321 124.625 41.9811 124.631 42.0291 124.64C42.2181 124.676 42.4111 124.706 42.6041 124.737C42.7131 124.755 42.8211 124.777 42.9311 124.793C42.9701 124.798 43.0111 124.8 43.0511 124.806C43.2291 124.828 43.4071 124.845 43.5861 124.864C43.7101 124.876 43.8331 124.893 43.9581 124.903C43.9941 124.906 44.031 124.906 44.067 124.909C44.248 124.922 44.4291 124.928 44.6111 124.935C44.7401 124.941 44.8671 124.952 44.9961 124.955C45.0281 124.955 45.06 124.953 45.093 124.954C45.298 124.957 45.5021 124.952 45.7081 124.949C45.8291 124.947 45.9511 124.95 46.0731 124.946C46.0951 124.945 46.1161 124.942 46.1381 124.941C46.5051 124.926 46.8711 124.902 47.2361 124.865C47.2361 124.865 47.2391 124.865 47.2411 124.864C47.2501 124.864 47.2581 124.862 47.2671 124.861C47.6601 124.82 48.048 124.762 48.433 124.696C48.478 124.688 48.526 124.684 48.571 124.676C48.679 124.656 48.7841 124.63 48.8911 124.608C49.0501 124.576 49.2081 124.543 49.3661 124.507C49.5281 124.469 49.6871 124.426 49.8481 124.384C50.0011 124.342 50.1561 124.301 50.3071 124.255C50.3581 124.24 50.4111 124.229 50.4611 124.212C50.5281 124.191 50.5901 124.163 50.6561 124.141C50.9301 124.05 51.1971 123.951 51.4601 123.846C51.5641 123.804 51.667 123.764 51.769 123.72C52.115 123.569 52.4521 123.409 52.7711 123.232C52.9471 123.133 53.1161 123.033 53.2771 122.93C53.3251 122.9 53.364 122.867 53.411 122.836C53.516 122.766 53.6161 122.693 53.7161 122.621C53.8391 122.532 53.958 122.442 54.071 122.35C54.164 122.274 54.252 122.198 54.338 122.121C54.391 122.073 54.452 122.028 54.502 121.979C54.539 121.945 54.5631 121.907 54.5991 121.872C54.7511 121.72 54.8901 121.564 55.0181 121.407C55.0531 121.362 55.101 121.321 55.135 121.276C55.15 121.258 55.1581 121.237 55.1731 121.217C55.2671 121.09 55.346 120.96 55.425 120.83C55.462 120.769 55.5101 120.709 55.5441 120.647C55.5501 120.635 55.5541 120.623 55.5601 120.611C55.6171 120.506 55.659 120.398 55.705 120.292C55.741 120.21 55.786 120.129 55.816 120.046C55.82 120.035 55.821 120.025 55.825 120.014C55.858 119.92 55.8771 119.824 55.9021 119.73C55.9271 119.637 55.9611 119.545 55.9781 119.451C55.9801 119.439 55.9801 119.428 55.9821 119.416C55.9991 119.315 56.0031 119.215 56.0121 119.115C56.0181 119.02 56.035 118.93 56.036 118.841Z" fill="#49596E"/>
<path d="M53.332 111.256L53.337 113.014C53.337 113.032 53.337 113.048 53.336 113.066C53.335 113.133 53.322 113.2 53.316 113.266C53.308 113.341 53.306 113.416 53.293 113.491C53.292 113.5 53.292 113.508 53.29 113.517C53.277 113.586 53.253 113.655 53.234 113.723C53.214 113.794 53.201 113.866 53.175 113.937C53.173 113.945 53.172 113.953 53.169 113.96C53.146 114.021 53.113 114.081 53.087 114.142C53.052 114.222 53.021 114.302 52.979 114.381C52.975 114.39 52.972 114.399 52.967 114.407C52.942 114.453 52.906 114.497 52.878 114.543C52.819 114.64 52.761 114.736 52.69 114.831C52.679 114.846 52.672 114.86 52.662 114.875C52.637 114.908 52.601 114.939 52.575 114.972C52.479 115.089 52.377 115.204 52.264 115.318C52.239 115.344 52.22 115.372 52.193 115.398C52.155 115.434 52.109 115.468 52.07 115.503C52.005 115.561 51.941 115.617 51.873 115.673C51.788 115.741 51.699 115.809 51.607 115.875C51.534 115.929 51.459 115.982 51.38 116.034C51.346 116.057 51.317 116.081 51.281 116.104C51.161 116.18 51.035 116.255 50.905 116.328C50.553 116.524 50.174 116.688 49.782 116.84C49.683 116.878 49.585 116.914 49.483 116.949C49.383 116.984 49.289 117.026 49.186 117.057C49.03 117.107 48.862 117.134 48.701 117.176C48.473 117.237 48.248 117.298 48.013 117.345C47.934 117.362 47.861 117.388 47.781 117.403C47.456 117.461 47.125 117.508 46.792 117.543C46.79 117.543 46.788 117.543 46.786 117.543C46.781 117.544 46.776 117.544 46.772 117.544C46.491 117.572 46.208 117.593 45.923 117.603C45.737 117.61 45.552 117.608 45.366 117.607C45.318 117.607 45.27 117.609 45.223 117.608C45.19 117.608 45.156 117.61 45.122 117.609C44.863 117.604 44.605 117.591 44.349 117.571C44.186 117.558 44.025 117.538 43.863 117.519C43.812 117.513 43.761 117.509 43.711 117.502C43.669 117.497 43.627 117.494 43.585 117.488C43.323 117.453 43.063 117.409 42.807 117.357C42.685 117.333 42.568 117.298 42.448 117.27C42.369 117.252 42.291 117.234 42.212 117.214C42.135 117.193 42.055 117.179 41.979 117.157C41.652 117.065 41.334 116.96 41.026 116.841C41.014 116.837 41.005 116.83 40.994 116.825C40.548 116.65 40.124 116.447 39.735 116.214C38.269 115.331 37.539 114.194 37.536 113.058L37.531 111.249C33.825 113.629 33.856 117.29 37.741 119.627C41.802 122.071 48.525 122.14 52.759 119.779C56.895 117.475 57.112 113.708 53.332 111.256Z" fill="#6C7890"/>
<path d="M56.036 106.4C56.037 106.377 56.037 106.353 56.037 106.33L56.0271 102.885C56.0271 102.998 56.0091 103.111 55.9991 103.224C55.9901 103.325 55.9861 103.426 55.9691 103.527C55.9501 103.631 55.917 103.735 55.89 103.838C55.865 103.934 55.845 104.03 55.812 104.125C55.779 104.218 55.7331 104.31 55.6931 104.401C55.6461 104.508 55.6051 104.616 55.5481 104.722C55.5081 104.795 55.456 104.867 55.412 104.941C55.333 105.071 55.2541 105.201 55.1601 105.328C55.1121 105.391 55.0561 105.454 55.0041 105.517C54.8761 105.674 54.7381 105.83 54.5871 105.981C54.5021 106.066 54.4161 106.149 54.3241 106.231C54.2381 106.308 54.15 106.384 54.058 106.459C53.945 106.551 53.8261 106.642 53.7031 106.731C53.6031 106.803 53.5041 106.876 53.3971 106.946C53.1941 107.081 52.9861 107.215 52.7581 107.341C52.4391 107.52 52.102 107.679 51.757 107.829C51.654 107.873 51.55 107.914 51.446 107.956C51.184 108.061 50.917 108.16 50.644 108.25C50.527 108.289 50.4121 108.329 50.2931 108.365C50.1421 108.411 49.988 108.452 49.834 108.493C49.674 108.536 49.5141 108.579 49.3521 108.617C49.1961 108.653 49.0381 108.685 48.8801 108.717C48.7271 108.748 48.5731 108.778 48.4191 108.806C48.0361 108.872 47.6491 108.929 47.2591 108.969C47.2461 108.971 47.235 108.973 47.222 108.975C46.859 109.012 46.4931 109.036 46.1251 109.051C45.9821 109.057 45.8391 109.056 45.6951 109.058C45.4901 109.062 45.285 109.067 45.08 109.064C44.919 109.061 44.7581 109.052 44.5981 109.046C44.4161 109.038 44.2361 109.032 44.0551 109.019C43.8941 109.008 43.735 108.99 43.575 108.974C43.396 108.956 43.2171 108.94 43.0391 108.916C42.8881 108.896 42.7391 108.871 42.5891 108.848C42.3981 108.819 42.2061 108.788 42.0181 108.751C41.8821 108.726 41.7481 108.694 41.6151 108.665C41.3921 108.616 41.172 108.564 40.954 108.507C40.833 108.475 40.7141 108.44 40.5941 108.406C40.2631 108.308 39.9381 108.202 39.6221 108.083C39.5581 108.06 39.4931 108.039 39.4311 108.015C39.2321 107.937 39.041 107.85 38.851 107.763C38.753 107.719 38.6531 107.679 38.5571 107.633C38.2761 107.495 38.0021 107.349 37.7421 107.192C35.7701 106.005 34.7891 104.477 34.7841 102.949L34.7891 104.672C34.7911 105.275 34.7931 105.878 34.7941 106.395C34.7991 107.923 35.7801 109.452 37.7511 110.638C38.0131 110.795 38.2861 110.942 38.5681 111.079C38.6611 111.125 38.76 111.163 38.856 111.207C39.048 111.294 39.241 111.383 39.442 111.462C39.458 111.468 39.4711 111.476 39.4871 111.482C39.5341 111.5 39.584 111.512 39.631 111.53C39.947 111.648 40.273 111.756 40.605 111.853C40.661 111.869 40.712 111.891 40.769 111.907C40.833 111.925 40.9021 111.937 40.9661 111.955C41.1841 112.013 41.405 112.064 41.627 112.113C41.714 112.133 41.7971 112.157 41.8841 112.175C41.9321 112.185 41.9811 112.191 42.0291 112.199C42.2181 112.236 42.4111 112.266 42.6041 112.297C42.7131 112.314 42.8211 112.337 42.9311 112.352C42.9701 112.358 43.0111 112.36 43.0511 112.365C43.2291 112.388 43.4071 112.405 43.5861 112.423C43.7101 112.436 43.8331 112.453 43.9581 112.463C43.9941 112.466 44.031 112.466 44.067 112.469C44.248 112.482 44.4291 112.488 44.6111 112.495C44.7401 112.501 44.8671 112.512 44.9961 112.513C45.0281 112.514 45.06 112.512 45.093 112.513C45.298 112.516 45.5021 112.511 45.7081 112.508C45.8291 112.505 45.9511 112.509 46.0731 112.504C46.0951 112.504 46.1161 112.501 46.1381 112.5C46.5051 112.484 46.8711 112.461 47.2361 112.424C47.2361 112.424 47.2391 112.423 47.2411 112.423C47.2501 112.422 47.2581 112.42 47.2671 112.419C47.6601 112.379 48.048 112.321 48.433 112.255C48.478 112.247 48.526 112.243 48.571 112.235C48.679 112.215 48.7841 112.188 48.8911 112.167C49.0501 112.135 49.2081 112.103 49.3661 112.066C49.5281 112.028 49.6871 111.985 49.8481 111.942C50.0011 111.901 50.1561 111.86 50.3071 111.814C50.3581 111.798 50.4111 111.787 50.4611 111.771C50.5281 111.75 50.5901 111.721 50.6561 111.7C50.9301 111.609 51.1971 111.511 51.4601 111.405C51.5641 111.363 51.667 111.323 51.769 111.278C52.115 111.128 52.4521 110.968 52.7711 110.791C52.9471 110.692 53.1161 110.592 53.2771 110.489C53.3251 110.459 53.364 110.425 53.411 110.395C53.516 110.325 53.6161 110.252 53.7161 110.18C53.8391 110.091 53.958 110.001 54.071 109.908C54.164 109.833 54.252 109.757 54.338 109.68C54.391 109.632 54.452 109.586 54.502 109.538C54.539 109.503 54.5631 109.466 54.5991 109.431C54.7511 109.279 54.8901 109.123 55.0181 108.965C55.0531 108.921 55.101 108.88 55.135 108.835C55.15 108.816 55.1581 108.796 55.1731 108.776C55.2671 108.649 55.346 108.519 55.425 108.388C55.462 108.328 55.5101 108.268 55.5441 108.206C55.5501 108.193 55.5541 108.182 55.5601 108.17C55.6171 108.065 55.659 107.957 55.705 107.851C55.741 107.769 55.786 107.688 55.816 107.605C55.82 107.594 55.821 107.584 55.825 107.573C55.858 107.478 55.8771 107.383 55.9021 107.289C55.9271 107.195 55.9611 107.103 55.9781 107.01C55.9801 106.998 55.9801 106.987 55.9821 106.975C55.9991 106.875 56.0031 106.774 56.0121 106.673C56.0181 106.58 56.035 106.49 56.036 106.4Z" fill="#49596E"/>
<path d="M53.332 98.816L53.337 100.574C53.337 100.591 53.337 100.608 53.336 100.626C53.335 100.692 53.322 100.759 53.316 100.826C53.308 100.901 53.306 100.976 53.293 101.051C53.292 101.06 53.292 101.069 53.29 101.077C53.277 101.146 53.253 101.215 53.234 101.283C53.214 101.354 53.201 101.426 53.175 101.496C53.173 101.504 53.172 101.513 53.169 101.52C53.146 101.581 53.113 101.641 53.087 101.702C53.052 101.781 53.021 101.862 52.979 101.94C52.975 101.949 52.972 101.959 52.967 101.967C52.942 102.013 52.906 102.057 52.878 102.103C52.819 102.2 52.761 102.296 52.69 102.391C52.679 102.405 52.672 102.42 52.662 102.434C52.637 102.467 52.601 102.499 52.575 102.532C52.479 102.649 52.377 102.764 52.264 102.878C52.239 102.903 52.22 102.932 52.193 102.958C52.155 102.994 52.109 103.027 52.07 103.063C52.005 103.121 51.941 103.177 51.873 103.233C51.788 103.301 51.699 103.369 51.607 103.435C51.534 103.489 51.459 103.542 51.38 103.594C51.346 103.616 51.317 103.641 51.281 103.663C51.161 103.74 51.035 103.814 50.905 103.888C50.553 104.083 50.174 104.248 49.782 104.4C49.683 104.438 49.585 104.474 49.483 104.509C49.383 104.543 49.289 104.585 49.186 104.617C49.03 104.666 48.862 104.693 48.701 104.736C48.473 104.797 48.248 104.858 48.013 104.905C47.934 104.921 47.861 104.948 47.781 104.962C47.456 105.022 47.125 105.069 46.792 105.102C46.79 105.103 46.788 105.103 46.786 105.103C46.781 105.103 46.776 105.103 46.772 105.104C46.491 105.132 46.208 105.152 45.923 105.163C45.737 105.17 45.552 105.169 45.366 105.168C45.318 105.168 45.27 105.17 45.223 105.169C45.19 105.169 45.156 105.171 45.122 105.17C44.863 105.164 44.605 105.152 44.349 105.132C44.186 105.119 44.025 105.099 43.863 105.08C43.812 105.074 43.761 105.07 43.711 105.063C43.669 105.058 43.627 105.055 43.585 105.049C43.323 105.013 43.063 104.969 42.807 104.917C42.685 104.893 42.568 104.859 42.448 104.831C42.369 104.812 42.291 104.795 42.212 104.774C42.135 104.754 42.055 104.74 41.979 104.718C41.652 104.626 41.334 104.521 41.026 104.402C41.014 104.397 41.005 104.39 40.994 104.386C40.548 104.21 40.124 104.008 39.735 103.774C38.269 102.892 37.539 101.756 37.536 100.619L37.531 98.809C33.825 101.19 33.856 104.85 37.741 107.188C41.802 109.632 48.525 109.7 52.759 107.339C56.895 105.035 57.112 101.267 53.332 98.816Z" fill="#6C7890"/>
<path d="M56.036 83.127C56.037 83.104 56.037 83.0799 56.037 83.0569L56.0271 79.6119C56.0271 79.7249 56.0091 79.8389 55.9991 79.9519C55.9901 80.0529 55.9861 80.1529 55.9691 80.2539C55.9501 80.3589 55.917 80.462 55.89 80.567C55.865 80.663 55.845 80.7579 55.812 80.8539C55.779 80.9469 55.7331 81.0379 55.6931 81.1299C55.6461 81.2359 55.6051 81.345 55.5481 81.45C55.5081 81.524 55.456 81.596 55.412 81.67C55.333 81.8 55.2541 81.9289 55.1601 82.0559C55.1121 82.1199 55.0561 82.1829 55.0041 82.2449C54.8761 82.4029 54.7381 82.558 54.5871 82.71C54.5021 82.794 54.4161 82.878 54.3241 82.96C54.2381 83.037 54.15 83.1129 54.058 83.1889C53.945 83.2809 53.8261 83.371 53.7031 83.46C53.6031 83.532 53.5041 83.605 53.3971 83.675C53.1941 83.81 52.9861 83.9429 52.7581 84.0699C52.4391 84.2479 52.102 84.408 51.757 84.558C51.654 84.602 51.55 84.6429 51.446 84.6849C51.184 84.7899 50.917 84.8879 50.644 84.9789C50.527 85.0179 50.4121 85.0579 50.2931 85.0939C50.1421 85.1399 49.988 85.181 49.834 85.222C49.674 85.265 49.5141 85.3069 49.3521 85.3449C49.1961 85.3819 49.0381 85.413 48.8801 85.446C48.7271 85.477 48.5731 85.5069 48.4191 85.5339C48.0361 85.5999 47.6491 85.6569 47.2591 85.6979C47.2461 85.6989 47.235 85.7019 47.222 85.7029C46.859 85.7399 46.4931 85.765 46.1251 85.779C45.9821 85.785 45.8391 85.784 45.6951 85.787C45.4901 85.791 45.285 85.7949 45.08 85.7919C44.919 85.7899 44.7581 85.78 44.5981 85.774C44.4161 85.766 44.2361 85.7589 44.0551 85.7469C43.8941 85.7349 43.735 85.7179 43.575 85.7019C43.396 85.6839 43.2171 85.668 43.0391 85.644C42.8881 85.624 42.7391 85.599 42.5891 85.576C42.3981 85.546 42.2061 85.5149 42.0181 85.4789C41.8821 85.4529 41.7481 85.4219 41.6151 85.3929C41.3921 85.3439 41.172 85.2909 40.954 85.2339C40.833 85.2019 40.7141 85.168 40.5941 85.132C40.2631 85.035 39.9381 84.9279 39.6221 84.8099C39.5581 84.7869 39.4931 84.7659 39.4311 84.7419C39.2321 84.6639 39.041 84.576 38.851 84.489C38.753 84.445 38.6531 84.4059 38.5571 84.3589C38.2761 84.2219 38.0021 84.0759 37.7421 83.9179C35.7701 82.7319 34.7891 81.2039 34.7841 79.6759L34.7891 81.399C34.7911 82.002 34.7931 82.6049 34.7941 83.1219C34.7991 84.6499 35.7801 86.179 37.7511 87.365C38.0131 87.522 38.2861 87.6689 38.5681 87.8059C38.6611 87.8509 38.76 87.89 38.856 87.933C39.048 88.021 39.241 88.11 39.442 88.188C39.458 88.195 39.4711 88.2019 39.4871 88.2079C39.5341 88.2269 39.584 88.238 39.631 88.256C39.947 88.375 40.273 88.4829 40.605 88.5789C40.661 88.5959 40.712 88.6179 40.769 88.6339C40.833 88.6519 40.9021 88.6639 40.9661 88.6809C41.1841 88.7399 41.405 88.7909 41.627 88.8399C41.714 88.8579 41.7971 88.8839 41.8841 88.9009C41.9321 88.9109 41.9811 88.916 42.0291 88.925C42.2181 88.961 42.4111 88.9909 42.6041 89.0219C42.7131 89.0399 42.8211 89.0619 42.9311 89.0779C42.9701 89.0829 43.0111 89.0859 43.0511 89.0909C43.2291 89.1139 43.4071 89.131 43.5861 89.149C43.7101 89.161 43.8331 89.1789 43.9581 89.1889C43.9941 89.1909 44.031 89.1909 44.067 89.1939C44.248 89.2079 44.4291 89.2139 44.6111 89.2209C44.7401 89.2259 44.8671 89.237 44.9961 89.24C45.0281 89.241 45.06 89.239 45.093 89.239C45.298 89.242 45.5021 89.2379 45.7081 89.2339C45.8291 89.2319 45.9511 89.236 46.0731 89.231C46.0951 89.23 46.1161 89.227 46.1381 89.226C46.5051 89.211 46.8711 89.1869 47.2361 89.1499C47.2361 89.1499 47.2391 89.1499 47.2411 89.1499C47.2501 89.1489 47.2581 89.1469 47.2671 89.1459C47.6601 89.1049 48.048 89.047 48.433 88.981C48.478 88.973 48.526 88.9699 48.571 88.9609C48.679 88.9409 48.7841 88.915 48.8911 88.894C49.0501 88.862 49.2081 88.8289 49.3661 88.7919C49.5281 88.7539 49.6871 88.7119 49.8481 88.6689C50.0011 88.6279 50.1561 88.587 50.3071 88.541C50.3581 88.525 50.4111 88.514 50.4611 88.498C50.5281 88.476 50.5901 88.4479 50.6561 88.4259C50.9301 88.3349 51.1971 88.237 51.4601 88.131C51.5641 88.089 51.667 88.0489 51.769 88.0049C52.115 87.8549 52.4521 87.6939 52.7711 87.5169C52.9471 87.4189 53.1161 87.3189 53.2771 87.2149C53.3251 87.1849 53.364 87.1519 53.411 87.1209C53.516 87.0509 53.6161 86.979 53.7161 86.907C53.8391 86.817 53.958 86.7269 54.071 86.6349C54.164 86.5599 54.252 86.4829 54.338 86.4059C54.391 86.3579 54.452 86.3129 54.502 86.2639C54.539 86.2299 54.5631 86.192 54.5991 86.157C54.7511 86.004 54.8901 85.8479 55.0181 85.6909C55.0531 85.6469 55.101 85.6049 55.135 85.5609C55.15 85.5409 55.1581 85.521 55.1731 85.502C55.2671 85.374 55.346 85.244 55.425 85.114C55.462 85.053 55.5101 84.9929 55.5441 84.9309C55.5501 84.9189 55.5541 84.907 55.5601 84.895C55.6171 84.79 55.659 84.683 55.705 84.576C55.741 84.494 55.786 84.4129 55.816 84.3309C55.82 84.3199 55.821 84.3089 55.825 84.2979C55.858 84.2039 55.8771 84.1089 55.9021 84.0139C55.9271 83.9209 55.9611 83.828 55.9781 83.735C55.9801 83.723 55.9801 83.712 55.9821 83.7C55.9991 83.6 56.0031 83.5 56.0121 83.399C56.0181 83.306 56.035 83.217 56.036 83.127Z" fill="#49596E"/>
<path d="M53.332 75.543L53.337 77.301C53.337 77.319 53.337 77.336 53.336 77.353C53.335 77.42 53.322 77.487 53.316 77.553C53.308 77.628 53.306 77.703 53.293 77.779C53.292 77.788 53.292 77.797 53.29 77.804C53.277 77.873 53.253 77.942 53.234 78.011C53.214 78.082 53.201 78.154 53.175 78.224C53.173 78.232 53.172 78.24 53.169 78.247C53.146 78.309 53.113 78.368 53.087 78.429C53.052 78.509 53.021 78.589 52.979 78.668C52.975 78.677 52.972 78.686 52.967 78.694C52.942 78.74 52.906 78.785 52.878 78.83C52.819 78.927 52.761 79.023 52.69 79.118C52.679 79.133 52.672 79.147 52.662 79.162C52.637 79.195 52.601 79.226 52.575 79.259C52.479 79.376 52.377 79.492 52.264 79.605C52.239 79.631 52.22 79.66 52.193 79.685C52.155 79.721 52.109 79.755 52.07 79.792C52.005 79.849 51.941 79.905 51.873 79.961C51.788 80.03 51.699 80.097 51.607 80.163C51.534 80.217 51.459 80.27 51.38 80.322C51.346 80.346 51.317 80.37 51.281 80.392C51.161 80.468 51.035 80.543 50.905 80.616C50.553 80.812 50.174 80.977 49.782 81.128C49.683 81.166 49.585 81.202 49.483 81.237C49.383 81.272 49.289 81.314 49.186 81.346C49.03 81.395 48.862 81.422 48.701 81.465C48.473 81.525 48.248 81.586 48.013 81.634C47.934 81.65 47.861 81.676 47.781 81.691C47.456 81.75 47.125 81.796 46.792 81.831C46.79 81.831 46.788 81.831 46.786 81.831C46.781 81.832 46.776 81.832 46.772 81.832C46.491 81.86 46.208 81.881 45.923 81.892C45.737 81.899 45.552 81.897 45.366 81.896C45.318 81.896 45.27 81.898 45.223 81.898C45.19 81.897 45.156 81.899 45.122 81.899C44.863 81.893 44.605 81.881 44.349 81.861C44.186 81.848 44.025 81.827 43.863 81.808C43.812 81.802 43.761 81.798 43.711 81.792C43.669 81.786 43.627 81.784 43.585 81.778C43.323 81.742 43.063 81.698 42.807 81.646C42.685 81.622 42.568 81.588 42.448 81.56C42.369 81.542 42.291 81.523 42.212 81.503C42.135 81.483 42.055 81.468 41.979 81.446C41.652 81.355 41.334 81.25 41.026 81.13C41.014 81.126 41.005 81.119 40.994 81.114C40.548 80.939 40.124 80.737 39.735 80.503C38.269 79.62 37.539 78.483 37.536 77.347L37.531 75.538C33.825 77.918 33.856 81.579 37.741 83.916C41.802 86.36 48.525 86.429 52.759 84.068C56.895 81.762 57.112 77.995 53.332 75.543Z" fill="#6C7890"/>
<path d="M81.0981 33.161C81.1511 33.143 81.2021 33.13 81.2541 33.113C81.4421 33.053 81.624 33.002 81.804 32.956C81.977 32.912 82.1441 32.879 82.3101 32.848C82.4211 32.827 82.536 32.802 82.644 32.787C82.742 32.773 82.8351 32.766 82.9311 32.758C83.0731 32.745 83.2141 32.733 83.3501 32.731C83.4201 32.729 83.4891 32.731 83.5571 32.732C83.7121 32.736 83.8641 32.746 84.0081 32.763C84.0501 32.768 84.0931 32.771 84.1331 32.778C84.3121 32.806 84.4821 32.846 84.6421 32.897C84.6721 32.907 84.701 32.917 84.73 32.928C84.893 32.985 85.0481 33.051 85.1901 33.133L81.0611 30.734C81.0501 30.728 81.0401 30.722 81.0311 30.716C80.9431 30.666 80.8501 30.621 80.7551 30.581C80.7061 30.56 80.6521 30.546 80.6021 30.527C80.5731 30.517 80.5441 30.506 80.5141 30.497C80.4881 30.488 80.463 30.477 80.437 30.47C80.318 30.436 80.1931 30.407 80.0641 30.385C80.0451 30.381 80.0251 30.381 80.0051 30.378C79.9641 30.371 79.9221 30.368 79.8801 30.363C79.7951 30.352 79.7111 30.339 79.6221 30.334C79.5591 30.33 79.492 30.334 79.429 30.332C79.361 30.331 79.292 30.329 79.222 30.331C79.176 30.332 79.1341 30.328 79.0871 30.33C78.9951 30.334 78.8971 30.35 78.8021 30.358C78.7071 30.367 78.6141 30.374 78.5161 30.387C78.4851 30.391 78.4551 30.391 78.4231 30.396C78.3461 30.408 78.2611 30.433 78.1811 30.448C78.0161 30.479 77.8491 30.513 77.6761 30.556C77.6331 30.567 77.593 30.571 77.549 30.583C77.41 30.62 77.2671 30.668 77.1241 30.713C77.0721 30.73 77.0221 30.743 76.9711 30.761C76.7421 30.838 76.51 30.924 76.273 31.023C76.252 31.031 76.2311 31.044 76.2101 31.051C75.8921 31.186 75.567 31.334 75.235 31.506L79.364 33.905C79.696 33.733 80.0201 33.585 80.3401 33.45C80.5971 33.342 80.8501 33.245 81.0981 33.161Z" fill="#EEEDEA"/>
<path d="M73.094 30.878C73.309 30.779 73.522 30.685 73.73 30.603C73.807 30.574 73.883 30.544 73.959 30.517C74.199 30.428 74.434 30.35 74.664 30.284C74.703 30.272 74.745 30.258 74.784 30.246C74.923 30.208 75.052 30.186 75.185 30.157C75.343 30.122 75.504 30.08 75.656 30.056C75.913 30.015 76.161 29.989 76.397 29.98C76.43 29.979 76.46 29.981 76.492 29.981C76.691 29.976 76.883 29.984 77.066 30.003C77.113 30.008 77.161 30.013 77.208 30.02C77.403 30.046 77.591 30.083 77.765 30.137C77.786 30.144 77.807 30.152 77.829 30.159C78.014 30.22 78.187 30.293 78.346 30.384L74.217 27.985C74.207 27.98 74.196 27.974 74.187 27.968C74.1 27.919 74.008 27.874 73.913 27.834C73.846 27.806 73.772 27.783 73.701 27.76C73.68 27.752 73.66 27.744 73.637 27.738C73.621 27.733 73.608 27.727 73.593 27.722C73.473 27.687 73.349 27.659 73.219 27.636C73.175 27.628 73.125 27.626 73.08 27.62C73.033 27.613 72.986 27.608 72.938 27.603C72.883 27.597 72.831 27.588 72.776 27.584C72.644 27.575 72.504 27.578 72.364 27.581C72.332 27.581 72.302 27.579 72.269 27.58C72.26 27.58 72.251 27.579 72.242 27.58C72.025 27.589 71.8 27.612 71.566 27.647C71.553 27.649 71.54 27.654 71.528 27.656C71.377 27.679 71.215 27.721 71.057 27.757C70.936 27.784 70.82 27.8 70.696 27.834C70.683 27.837 70.67 27.843 70.656 27.846C70.617 27.858 70.575 27.872 70.535 27.884C70.306 27.951 70.07 28.029 69.831 28.117C69.756 28.144 69.68 28.173 69.603 28.203C69.537 28.229 69.473 28.25 69.407 28.278C69.262 28.337 69.114 28.411 68.967 28.478C68.87 28.523 68.775 28.563 68.676 28.611C68.369 28.76 68.059 28.923 67.742 29.106C67.266 29.38 66.796 29.682 66.348 30.002L70.477 32.401C70.925 32.081 71.396 31.779 71.872 31.504C72.188 31.32 72.499 31.158 72.806 31.009C72.902 30.962 72.997 30.923 73.094 30.878Z" fill="#EEEDEA"/>
<path d="M60.01 38.108C60.017 38.086 60.023 38.064 60.03 38.043C60.07 37.919 60.116 37.793 60.167 37.666C60.177 37.642 60.188 37.617 60.197 37.592C60.251 37.463 60.308 37.333 60.373 37.202C60.382 37.184 60.392 37.165 60.401 37.146C60.46 37.028 60.522 36.911 60.589 36.791C60.606 36.762 60.621 36.732 60.638 36.703C60.716 36.568 60.797 36.433 60.884 36.298C60.905 36.266 60.929 36.233 60.95 36.2C61.019 36.095 61.091 35.989 61.166 35.885C61.215 35.817 61.266 35.749 61.316 35.681C61.374 35.605 61.43 35.529 61.49 35.453C61.586 35.332 61.685 35.212 61.787 35.092C61.823 35.05 61.856 35.008 61.893 34.966C62.083 34.747 62.287 34.533 62.496 34.323C62.542 34.277 62.587 34.232 62.633 34.186C62.786 34.038 62.944 33.89 63.106 33.747C63.13 33.725 63.153 33.703 63.177 33.682C63.363 33.521 63.555 33.364 63.75 33.212C63.804 33.17 63.858 33.13 63.912 33.089C64.062 32.976 64.216 32.865 64.371 32.758C64.431 32.717 64.49 32.676 64.55 32.636C64.757 32.498 64.967 32.365 65.181 32.241C65.404 32.113 65.622 31.999 65.838 31.893C65.907 31.859 65.976 31.83 66.044 31.799C66.177 31.738 66.308 31.681 66.438 31.629C66.71 31.52 66.978 31.425 67.233 31.356C67.321 31.332 67.404 31.318 67.489 31.298C67.608 31.272 67.729 31.24 67.842 31.223C68.023 31.195 68.197 31.176 68.364 31.17C68.388 31.169 68.41 31.171 68.434 31.17C68.573 31.168 68.706 31.173 68.834 31.186C68.867 31.19 68.901 31.194 68.934 31.198C69.072 31.218 69.204 31.244 69.327 31.281C69.343 31.286 69.357 31.292 69.373 31.298C69.503 31.341 69.625 31.392 69.736 31.456L65.607 29.057C65.599 29.053 65.592 29.049 65.585 29.045C65.522 29.01 65.457 28.978 65.39 28.949C65.343 28.929 65.292 28.914 65.244 28.897C65.228 28.892 65.214 28.886 65.198 28.881C65.186 28.878 65.177 28.873 65.165 28.869C65.081 28.844 64.993 28.825 64.901 28.808C64.871 28.803 64.837 28.802 64.805 28.797C64.773 28.793 64.74 28.789 64.705 28.785C64.666 28.781 64.629 28.774 64.588 28.772C64.497 28.766 64.4 28.767 64.305 28.769C64.281 28.77 64.259 28.768 64.235 28.769C64.227 28.769 64.22 28.768 64.212 28.769C64.06 28.776 63.901 28.792 63.737 28.817C63.729 28.818 63.72 28.821 63.712 28.822C63.598 28.84 63.477 28.871 63.358 28.898C63.278 28.916 63.202 28.926 63.12 28.949C63.114 28.951 63.109 28.953 63.103 28.955C62.848 29.024 62.581 29.119 62.308 29.228C62.28 29.24 62.253 29.245 62.225 29.256C62.124 29.298 62.018 29.351 61.914 29.398C61.846 29.43 61.778 29.458 61.709 29.492C61.493 29.597 61.274 29.712 61.052 29.84C60.838 29.964 60.628 30.097 60.421 30.235C60.361 30.275 60.302 30.316 60.242 30.357C60.087 30.464 59.934 30.574 59.784 30.687C59.729 30.728 59.675 30.769 59.62 30.811C59.425 30.963 59.233 31.119 59.049 31.281C59.024 31.302 59 31.326 58.976 31.347C58.814 31.49 58.658 31.636 58.504 31.785C58.481 31.808 58.455 31.829 58.433 31.852C58.41 31.875 58.39 31.898 58.367 31.921C58.157 32.131 57.954 32.345 57.763 32.564C57.758 32.57 57.752 32.576 57.747 32.582C57.716 32.618 57.687 32.654 57.657 32.69C57.555 32.81 57.456 32.93 57.36 33.051C57.344 33.071 57.327 33.09 57.311 33.11C57.268 33.167 57.229 33.223 57.187 33.279C57.136 33.347 57.083 33.416 57.035 33.485C57.021 33.505 57.005 33.525 56.991 33.545C56.931 33.63 56.877 33.714 56.821 33.799C56.799 33.831 56.775 33.864 56.754 33.898C56.75 33.905 56.745 33.912 56.74 33.919C56.67 34.029 56.602 34.14 56.538 34.249C56.528 34.267 56.518 34.285 56.509 34.303C56.491 34.333 56.476 34.363 56.459 34.393C56.43 34.445 56.398 34.497 56.371 34.55C56.336 34.614 56.305 34.68 56.272 34.744C56.262 34.764 56.252 34.783 56.242 34.803C56.238 34.812 56.233 34.82 56.228 34.829C56.186 34.917 56.146 35.005 56.108 35.092C56.093 35.125 56.082 35.158 56.067 35.192C56.057 35.217 56.046 35.242 56.037 35.266C56.026 35.292 56.015 35.319 56.005 35.345C55.973 35.43 55.942 35.514 55.914 35.597C55.909 35.613 55.905 35.627 55.9 35.642C55.893 35.664 55.887 35.687 55.88 35.708C55.866 35.755 55.85 35.803 55.837 35.85C55.818 35.918 55.803 35.985 55.787 36.052C55.783 36.07 55.778 36.087 55.774 36.105C55.773 36.111 55.771 36.118 55.769 36.125C55.746 36.234 55.727 36.342 55.713 36.448C55.711 36.466 55.709 36.483 55.707 36.502L59.836 38.901C59.851 38.771 59.873 38.638 59.902 38.504C59.906 38.487 59.911 38.471 59.915 38.454C59.943 38.34 59.974 38.224 60.01 38.108Z" fill="#EEEDEA"/>
<path d="M47.8921 56.36C47.8961 56.347 47.8981 56.335 47.9021 56.322C47.9681 56.079 48.0501 55.831 48.1471 55.58C48.1481 55.577 48.1501 55.574 48.1511 55.571C48.2471 55.323 48.358 55.071 48.481 54.817C48.49 54.799 48.499 54.783 48.507 54.765C48.629 54.517 48.7621 54.268 48.9081 54.018C48.9141 54.009 48.92 54 48.925 53.992C49.057 53.767 49.2001 53.544 49.3501 53.319C49.3881 53.262 49.4251 53.206 49.4641 53.149C49.6171 52.926 49.7791 52.705 49.9471 52.483C49.9651 52.462 49.9791 52.439 49.9961 52.418C50.1971 52.158 50.4081 51.9 50.6301 51.646L46.5011 49.247L46.4991 49.25C46.2811 49.5 46.0731 49.754 45.8751 50.009C45.8721 50.013 45.8701 50.016 45.8671 50.02C45.8501 50.042 45.834 50.066 45.816 50.088C45.678 50.269 45.544 50.448 45.416 50.63C45.388 50.67 45.3621 50.71 45.3351 50.751C45.2951 50.808 45.2581 50.864 45.2201 50.922C45.1661 51.002 45.11 51.083 45.058 51.163C44.967 51.306 44.8801 51.449 44.7961 51.592C44.7901 51.602 44.784 51.61 44.778 51.62C44.776 51.624 44.7741 51.627 44.7721 51.631C44.6881 51.774 44.6081 51.917 44.5331 52.059C44.4781 52.162 44.4271 52.265 44.3761 52.369C44.3681 52.386 44.359 52.402 44.351 52.42C44.345 52.432 44.3391 52.443 44.3331 52.454C44.2721 52.579 44.216 52.703 44.162 52.827C44.111 52.944 44.064 53.059 44.019 53.176C44.018 53.178 44.0171 53.18 44.0161 53.182C44.0161 53.184 44.0151 53.186 44.0141 53.188C43.9681 53.307 43.926 53.425 43.886 53.543C43.846 53.664 43.8091 53.785 43.7761 53.904C43.7741 53.911 43.7731 53.918 43.7711 53.925C43.7671 53.938 43.7651 53.949 43.7621 53.961C43.7321 54.072 43.7031 54.184 43.6801 54.293C43.6581 54.393 43.6451 54.49 43.6291 54.588C43.6241 54.623 43.6161 54.658 43.6111 54.693C43.6081 54.711 43.603 54.73 43.601 54.748C43.575 54.955 43.561 55.157 43.562 55.353L42.774 62.713L46.903 65.113L47.691 57.752C47.69 57.538 47.7081 57.317 47.7401 57.092C47.7451 57.057 47.7531 57.021 47.7591 56.985C47.7931 56.779 47.8351 56.572 47.8921 56.36Z" fill="#DCD6D6"/>
<path d="M50.228 48.736C50.237 48.697 50.246 48.657 50.257 48.617C50.303 48.432 50.356 48.247 50.419 48.057C50.425 48.04 50.432 48.023 50.438 48.005C50.507 47.804 50.585 47.601 50.673 47.396C50.676 47.39 50.678 47.383 50.681 47.377C50.768 47.176 50.866 46.974 50.969 46.771C50.987 46.738 51.003 46.705 51.02 46.671C51.123 46.475 51.234 46.279 51.351 46.081C51.379 46.033 51.41 45.985 51.439 45.936C51.535 45.78 51.636 45.623 51.741 45.466C51.783 45.403 51.824 45.341 51.867 45.278C51.963 45.139 52.065 45.001 52.168 44.863C52.229 44.781 52.286 44.699 52.35 44.617C52.415 44.532 52.486 44.448 52.553 44.364C52.68 44.205 52.809 44.047 52.944 43.889C53.003 43.822 53.063 43.755 53.123 43.688C53.373 43.406 53.635 43.126 53.907 42.854C53.946 42.815 53.984 42.774 54.023 42.735C54.273 42.49 54.532 42.251 54.797 42.017C54.862 41.958 54.932 41.903 54.999 41.846C55.204 41.67 55.413 41.498 55.626 41.33C55.72 41.257 55.814 41.185 55.909 41.114C56.112 40.961 56.318 40.812 56.527 40.668C56.618 40.605 56.708 40.542 56.799 40.481C57.097 40.283 57.399 40.092 57.705 39.915C58.042 39.721 58.373 39.549 58.7 39.391C58.802 39.341 58.901 39.299 59.002 39.253C59.285 39.124 59.566 38.999 59.838 38.899L55.709 36.5C55.571 36.551 55.433 36.604 55.292 36.663C55.155 36.72 55.014 36.79 54.874 36.853C54.772 36.899 54.673 36.941 54.57 36.991C54.244 37.149 53.913 37.321 53.576 37.515C53.269 37.693 52.968 37.883 52.67 38.08C52.579 38.141 52.489 38.205 52.399 38.268C52.189 38.413 51.982 38.561 51.779 38.714C51.684 38.785 51.59 38.856 51.498 38.93C51.283 39.098 51.074 39.271 50.868 39.447C50.802 39.504 50.733 39.558 50.668 39.616C50.402 39.85 50.144 40.09 49.894 40.336C49.882 40.347 49.87 40.358 49.859 40.368C49.831 40.395 49.807 40.425 49.779 40.453C49.506 40.726 49.245 41.005 48.994 41.288C48.96 41.327 48.921 41.363 48.888 41.401C48.863 41.43 48.841 41.46 48.816 41.489C48.68 41.647 48.551 41.806 48.423 41.967C48.37 42.032 48.313 42.096 48.262 42.161C48.248 42.18 48.237 42.197 48.223 42.215C48.158 42.299 48.098 42.384 48.035 42.469C47.958 42.574 47.878 42.677 47.805 42.782C47.782 42.814 47.763 42.845 47.74 42.878C47.696 42.941 47.654 43.005 47.612 43.069C47.558 43.149 47.502 43.229 47.451 43.308C47.402 43.384 47.358 43.46 47.312 43.536C47.282 43.585 47.251 43.634 47.222 43.683C47.204 43.713 47.184 43.743 47.166 43.773C47.084 43.916 47.005 44.056 46.93 44.198C46.917 44.222 46.905 44.247 46.893 44.271C46.874 44.305 46.859 44.338 46.841 44.373C46.803 44.446 46.764 44.52 46.729 44.595C46.668 44.721 46.611 44.846 46.557 44.97C46.555 44.973 46.554 44.976 46.553 44.979C46.55 44.985 46.548 44.991 46.545 44.997C46.497 45.108 46.451 45.22 46.409 45.33C46.373 45.423 46.342 45.516 46.309 45.607C46.303 45.625 46.296 45.642 46.291 45.659C46.288 45.669 46.283 45.679 46.28 45.688C46.24 45.809 46.203 45.929 46.171 46.047C46.154 46.105 46.143 46.161 46.129 46.218C46.118 46.258 46.109 46.297 46.1 46.337C46.091 46.371 46.081 46.406 46.074 46.441C46.041 46.598 46.014 46.754 45.995 46.906C45.97 47.109 45.957 47.307 45.957 47.501C45.96 48.226 46.154 48.815 46.503 49.246L50.632 51.645C50.283 51.213 50.088 50.624 50.086 49.9C50.086 49.708 50.099 49.509 50.124 49.306C50.146 49.12 50.183 48.929 50.228 48.736Z" fill="#EEEDEA"/>
<path d="M79.364 33.906C79.465 33.479 79.522 33.065 79.521 32.672C79.512 29.596 76.085 29.071 71.87 31.506C71.394 31.78 70.924 32.082 70.475 32.403C70.004 30.848 67.81 30.725 65.181 32.243C62.375 33.863 60.078 36.764 59.837 38.902C59.158 39.152 58.441 39.492 57.704 39.918C53.488 42.353 50.076 46.819 50.084 49.901C50.086 50.626 50.281 51.215 50.63 51.646C48.838 53.709 47.688 55.964 47.693 57.751L46.905 65.112L50.023 60.415C51.399 60.599 53.276 60.117 55.344 58.924C56.568 58.217 57.732 57.33 58.756 56.363C60.741 56.311 63.218 55.534 65.895 53.988C69.037 52.175 71.893 49.627 74.015 46.938C75.18 47.129 76.664 46.851 78.747 45.411C82.756 42.64 86.376 38.504 86.367 35.428C86.36 32.505 83.28 31.879 79.364 33.906Z" fill="#F5F5F5"/>
<path d="M23.879 95.071L23.837 109.812L25.365 108.924L25.407 94.183C25.407 94.183 24.375 93.944 24.093 94.108C23.993 94.166 23.879 95.071 23.879 95.071Z" fill="#26323F"/>
<path d="M54.729 126.929C54.725 126.929 54.721 126.93 54.717 126.93C54.654 126.938 54.586 126.937 54.515 126.927C54.443 126.917 54.367 126.899 54.288 126.87C54.286 126.869 54.285 126.868 54.283 126.868C54.204 126.839 54.123 126.802 54.04 126.753L26.584 110.901C26.5 110.852 26.418 110.797 26.339 110.734C26.339 110.734 26.338 110.733 26.337 110.732C26.258 110.669 26.183 110.6 26.109 110.527C26.109 110.526 26.108 110.525 26.108 110.525C26.036 110.451 25.967 110.373 25.902 110.29C25.901 110.288 25.899 110.286 25.897 110.283C25.834 110.2 25.773 110.114 25.717 110.024C25.61 109.848 25.521 109.661 25.46 109.474C25.459 109.473 25.459 109.471 25.458 109.47C25.429 109.377 25.405 109.285 25.389 109.195C25.389 109.194 25.389 109.192 25.388 109.191C25.372 109.099 25.365 109.009 25.365 108.923L23.837 109.811C23.837 109.826 23.838 109.84 23.838 109.855C23.839 109.872 23.839 109.887 23.84 109.903C23.841 109.92 23.843 109.935 23.844 109.952C23.846 109.968 23.848 109.984 23.85 110.001C23.852 110.018 23.854 110.034 23.857 110.052C23.859 110.061 23.86 110.07 23.862 110.079C23.862 110.08 23.863 110.082 23.863 110.083C23.864 110.09 23.865 110.097 23.866 110.103C23.87 110.121 23.873 110.138 23.877 110.157C23.881 110.175 23.886 110.193 23.89 110.211C23.895 110.229 23.9 110.248 23.905 110.267C23.91 110.286 23.916 110.303 23.922 110.323C23.926 110.335 23.93 110.347 23.934 110.36C23.934 110.361 23.935 110.363 23.936 110.364C23.937 110.369 23.938 110.373 23.94 110.378C23.946 110.396 23.953 110.414 23.959 110.432C23.966 110.451 23.973 110.468 23.979 110.486C23.986 110.504 23.993 110.521 24 110.539C24.008 110.556 24.015 110.573 24.022 110.591C24.03 110.609 24.038 110.625 24.045 110.643L24.046 110.644C24.055 110.664 24.065 110.683 24.073 110.702C24.085 110.724 24.096 110.747 24.107 110.768C24.124 110.799 24.141 110.831 24.159 110.861C24.17 110.88 24.181 110.897 24.191 110.916C24.213 110.952 24.237 110.987 24.261 111.022C24.283 111.056 24.307 111.089 24.331 111.122C24.344 111.141 24.357 111.157 24.371 111.175C24.373 111.178 24.374 111.18 24.376 111.182C24.379 111.186 24.382 111.189 24.385 111.193C24.401 111.213 24.417 111.233 24.434 111.254C24.45 111.274 24.466 111.292 24.483 111.311C24.5 111.331 24.516 111.349 24.533 111.368C24.55 111.385 24.566 111.402 24.583 111.419C24.583 111.419 24.583 111.42 24.584 111.42C24.584 111.421 24.585 111.422 24.586 111.423C24.605 111.442 24.623 111.46 24.642 111.478C24.661 111.497 24.68 111.514 24.7 111.532C24.72 111.55 24.739 111.566 24.759 111.583C24.777 111.599 24.794 111.612 24.813 111.627C24.813 111.628 24.814 111.628 24.815 111.629C24.816 111.63 24.817 111.631 24.818 111.632C24.838 111.647 24.857 111.661 24.877 111.676C24.896 111.69 24.915 111.703 24.935 111.717C24.954 111.73 24.972 111.742 24.992 111.754C25.01 111.766 25.029 111.777 25.048 111.788C25.053 111.791 25.057 111.794 25.062 111.796L52.518 127.648C52.532 127.657 52.546 127.665 52.56 127.672C52.579 127.682 52.597 127.692 52.615 127.7C52.634 127.709 52.651 127.718 52.669 127.725C52.688 127.733 52.705 127.741 52.723 127.747C52.737 127.752 52.749 127.757 52.762 127.762C52.763 127.763 52.765 127.763 52.766 127.764C52.77 127.765 52.773 127.766 52.777 127.768C52.795 127.774 52.812 127.78 52.83 127.785C52.848 127.791 52.866 127.796 52.885 127.801C52.904 127.805 52.921 127.809 52.94 127.813C52.957 127.817 52.976 127.82 52.995 127.822L52.996 127.823C53.016 127.825 53.035 127.827 53.054 127.829C53.075 127.83 53.095 127.831 53.116 127.831C53.137 127.831 53.159 127.83 53.18 127.828C53.186 127.827 53.192 127.826 53.198 127.825C53.202 127.825 53.206 127.824 53.21 127.824C53.224 127.822 53.238 127.82 53.252 127.817C53.282 127.811 53.311 127.803 53.338 127.795C53.354 127.789 53.369 127.782 53.385 127.775L54.912 126.887C54.85 126.905 54.791 126.921 54.729 126.929Z" fill="#6C7890"/>
<path d="M55.33 113.229L55.288 127.97C55.288 128.153 55.27 128.32 55.239 128.476C55.238 128.48 55.237 128.484 55.236 128.489C55.204 128.642 55.157 128.782 55.097 128.907C55.095 128.91 55.093 128.913 55.092 128.916C55.043 129.017 54.98 129.101 54.914 129.183C54.891 129.211 54.869 129.243 54.844 129.269C54.762 129.355 54.673 129.431 54.572 129.49L56.099 128.602C56.201 128.543 56.289 128.467 56.371 128.381C56.396 128.355 56.417 128.323 56.44 128.295C56.472 128.255 56.508 128.22 56.537 128.175C56.566 128.129 56.594 128.079 56.618 128.029C56.62 128.026 56.621 128.023 56.623 128.02C56.624 128.018 56.625 128.016 56.626 128.014C56.647 127.971 56.666 127.925 56.684 127.878C56.699 127.838 56.712 127.797 56.725 127.754C56.736 127.716 56.747 127.677 56.755 127.637C56.758 127.625 56.76 127.614 56.762 127.602C56.763 127.597 56.764 127.593 56.765 127.589C56.769 127.568 56.774 127.547 56.778 127.525C56.784 127.49 56.79 127.453 56.795 127.416C56.799 127.381 56.803 127.344 56.806 127.308C56.809 127.272 56.811 127.236 56.813 127.2C56.814 127.164 56.815 127.128 56.816 127.091C56.816 127.089 56.816 127.087 56.816 127.085L56.857 112.344L55.33 113.229Z" fill="#374353"/>
<path d="M54.525 110.719C54.019 109.902 53.328 109.179 52.567 108.739L25.11 92.887C24.344 92.445 23.652 92.369 23.147 92.604C22.643 92.838 22.328 93.379 22.325 94.173L22.284 108.914C22.281 109.709 22.593 110.61 23.095 111.431C23.596 112.242 24.287 112.969 25.053 113.411L52.509 129.263C53.27 129.703 53.963 129.774 54.472 129.541C54.976 129.307 55.287 128.765 55.289 127.97L55.331 113.229C55.332 112.434 55.026 111.535 54.525 110.719ZM53.739 127.075C53.738 127.425 53.598 127.663 53.377 127.768C53.155 127.869 52.85 127.835 52.514 127.641L25.058 111.789C24.721 111.595 24.416 111.276 24.191 110.912C23.975 110.558 23.837 110.161 23.838 109.811L23.88 95.0701C23.881 94.7251 24.021 94.4821 24.242 94.3821C24.465 94.2771 24.769 94.31 25.106 94.504L52.562 110.356C52.899 110.55 53.203 110.87 53.423 111.231C53.644 111.586 53.781 111.99 53.78 112.334L53.739 127.075Z" fill="#49596E"/>
<path d="M56.857 112.238C56.856 112.202 56.854 112.166 56.852 112.129C56.849 112.092 56.846 112.055 56.843 112.018C56.839 111.981 56.835 111.944 56.83 111.906C56.825 111.868 56.819 111.83 56.813 111.792C56.81 111.773 56.806 111.754 56.803 111.735C56.802 111.731 56.802 111.727 56.801 111.724C56.798 111.707 56.796 111.691 56.792 111.674C56.785 111.634 56.776 111.594 56.768 111.554C56.759 111.513 56.75 111.472 56.74 111.431C56.73 111.39 56.719 111.348 56.708 111.307C56.696 111.265 56.683 111.223 56.671 111.182C56.663 111.155 56.654 111.127 56.645 111.1C56.644 111.097 56.643 111.093 56.642 111.09C56.638 111.079 56.635 111.068 56.632 111.058C56.618 111.017 56.604 110.977 56.589 110.936C56.574 110.896 56.56 110.857 56.544 110.817C56.528 110.778 56.513 110.738 56.497 110.699C56.48 110.66 56.464 110.621 56.446 110.582C56.429 110.542 56.41 110.502 56.391 110.462L56.389 110.458L56.388 110.456C56.368 110.415 56.349 110.374 56.328 110.333C56.303 110.282 56.277 110.233 56.251 110.184C56.213 110.112 56.173 110.039 56.132 109.968C56.106 109.923 56.078 109.878 56.051 109.833C56.001 109.752 55.948 109.672 55.895 109.593C55.844 109.518 55.792 109.444 55.739 109.371C55.708 109.33 55.677 109.289 55.644 109.248C55.641 109.244 55.638 109.24 55.634 109.235C55.629 109.228 55.624 109.221 55.618 109.214C55.582 109.168 55.545 109.122 55.508 109.077C55.472 109.034 55.435 108.991 55.398 108.948C55.361 108.906 55.323 108.864 55.285 108.822C55.247 108.781 55.208 108.741 55.169 108.701L55.168 108.7L55.165 108.697C55.124 108.655 55.082 108.613 55.039 108.573C54.996 108.531 54.953 108.491 54.909 108.451C54.865 108.412 54.82 108.373 54.775 108.335C54.734 108.301 54.693 108.267 54.651 108.233L54.648 108.231C54.645 108.229 54.643 108.227 54.641 108.225C54.597 108.191 54.553 108.157 54.509 108.124C54.465 108.092 54.422 108.061 54.378 108.031C54.335 108.002 54.292 107.973 54.249 107.946C54.207 107.92 54.165 107.893 54.122 107.868C54.112 107.862 54.102 107.856 54.093 107.851L26.637 91.998C26.604 91.979 26.572 91.961 26.539 91.943C26.497 91.921 26.455 91.899 26.414 91.878C26.373 91.858 26.332 91.839 26.291 91.82C26.251 91.801 26.21 91.785 26.17 91.768C26.141 91.756 26.112 91.747 26.083 91.736C26.08 91.735 26.076 91.733 26.073 91.732C26.065 91.729 26.057 91.726 26.049 91.723C26.009 91.708 25.968 91.696 25.928 91.683C25.887 91.67 25.847 91.66 25.806 91.65C25.765 91.639 25.724 91.63 25.683 91.623C25.641 91.614 25.599 91.607 25.557 91.601C25.513 91.595 25.47 91.59 25.427 91.587C25.38 91.584 25.335 91.582 25.29 91.583C25.241 91.583 25.192 91.585 25.144 91.59C25.128 91.591 25.114 91.594 25.098 91.596C25.088 91.597 25.079 91.599 25.071 91.6C25.042 91.604 25.012 91.607 24.984 91.613C24.919 91.626 24.854 91.643 24.793 91.665C24.752 91.68 24.712 91.695 24.674 91.714C24.638 91.731 24.604 91.748 24.57 91.768L23.043 92.656C23.076 92.636 23.111 92.619 23.147 92.602C23.269 92.545 23.403 92.508 23.545 92.489C23.554 92.488 23.563 92.487 23.571 92.485C23.716 92.468 23.868 92.468 24.03 92.49H24.031C24.195 92.512 24.368 92.556 24.547 92.621C24.55 92.622 24.553 92.624 24.557 92.625C24.736 92.69 24.92 92.776 25.11 92.886L52.567 108.738C52.756 108.847 52.942 108.974 53.121 109.117C53.123 109.118 53.125 109.12 53.125 109.12C53.304 109.262 53.477 109.418 53.641 109.586L53.643 109.587C53.807 109.755 53.962 109.934 54.109 110.121C54.112 110.125 54.116 110.129 54.119 110.133C54.265 110.321 54.401 110.517 54.526 110.718C54.651 110.922 54.764 111.131 54.863 111.342L54.864 111.343C54.962 111.552 55.047 111.764 55.116 111.976C55.117 111.979 55.118 111.983 55.119 111.986C55.187 112.196 55.24 112.404 55.276 112.61C55.277 112.613 55.277 112.617 55.278 112.621C55.313 112.828 55.333 113.031 55.332 113.228L56.859 112.34C56.858 112.307 56.858 112.273 56.857 112.238Z" fill="#6C7890"/>
<path d="M32.744 77.247L32.702 91.987L34.229 91.099L34.271 76.358C34.271 76.358 33.24 76.119 32.958 76.283C32.859 76.342 32.744 77.247 32.744 77.247Z" fill="#26323F"/>
<path d="M63.5941 109.104C63.5901 109.105 63.5861 109.105 63.5821 109.106C63.5191 109.113 63.4511 109.113 63.3801 109.103H63.3791C63.3071 109.093 63.2321 109.074 63.1521 109.045L63.148 109.043C63.069 109.015 62.9881 108.977 62.9051 108.929L35.4481 93.077C35.3651 93.028 35.283 92.972 35.204 92.909L35.201 92.908C35.123 92.845 35.0471 92.776 34.9741 92.702L34.972 92.701C34.9 92.627 34.8311 92.548 34.7671 92.466C34.7651 92.463 34.7641 92.461 34.7621 92.459C34.6981 92.376 34.6371 92.289 34.5811 92.2C34.4741 92.023 34.3861 91.837 34.3241 91.65C34.3241 91.648 34.3231 91.647 34.3231 91.645C34.2931 91.553 34.2691 91.461 34.2541 91.371C34.2541 91.371 34.2531 91.368 34.2531 91.366C34.2371 91.275 34.2281 91.185 34.2281 91.098L32.701 91.986C32.701 92.001 32.7011 92.016 32.7021 92.031C32.7021 92.047 32.703 92.063 32.704 92.079C32.705 92.095 32.7061 92.111 32.7081 92.128C32.7091 92.144 32.7111 92.16 32.7141 92.177C32.7161 92.194 32.7181 92.21 32.7211 92.227C32.7221 92.237 32.724 92.246 32.726 92.255V92.259C32.728 92.266 32.729 92.272 32.73 92.279C32.733 92.296 32.7371 92.314 32.7411 92.332C32.7451 92.351 32.7491 92.368 32.7541 92.387C32.7591 92.405 32.763 92.424 32.769 92.442C32.774 92.46 32.7801 92.479 32.7851 92.498C32.7891 92.511 32.7931 92.523 32.7981 92.535C32.7981 92.537 32.799 92.538 32.799 92.54C32.801 92.545 32.802 92.549 32.804 92.554C32.81 92.572 32.8161 92.59 32.8221 92.608C32.8281 92.626 32.835 92.643 32.842 92.662C32.849 92.68 32.8561 92.696 32.8631 92.714C32.8701 92.731 32.878 92.749 32.885 92.767C32.892 92.784 32.9001 92.801 32.9081 92.818L32.9091 92.82C32.9181 92.84 32.9271 92.858 32.9361 92.878C32.9471 92.9 32.9581 92.922 32.9701 92.944C32.9871 92.975 33.0041 93.005 33.0221 93.037C33.0331 93.056 33.044 93.073 33.054 93.092C33.077 93.128 33.1 93.163 33.123 93.199C33.146 93.233 33.1701 93.266 33.1931 93.299C33.2071 93.317 33.2201 93.334 33.2341 93.352C33.2351 93.354 33.237 93.357 33.239 93.359C33.242 93.362 33.2441 93.366 33.2471 93.37C33.2641 93.39 33.2791 93.41 33.2961 93.431C33.3131 93.45 33.3281 93.469 33.3451 93.488C33.3621 93.506 33.3791 93.525 33.3961 93.544C33.4131 93.562 33.4281 93.579 33.4451 93.596L33.446 93.597L33.4491 93.6C33.4661 93.619 33.4851 93.637 33.5051 93.655C33.5241 93.673 33.543 93.691 33.562 93.709C33.582 93.726 33.6011 93.743 33.6211 93.76C33.6391 93.775 33.656 93.789 33.674 93.804L33.6761 93.805C33.6781 93.806 33.6801 93.808 33.6801 93.808C33.6991 93.824 33.7181 93.838 33.7381 93.853C33.7581 93.867 33.7761 93.88 33.7961 93.893C33.8141 93.907 33.8341 93.918 33.8531 93.931C33.8721 93.943 33.8901 93.954 33.9101 93.965C33.9141 93.968 33.9191 93.97 33.9231 93.973L61.3791 109.825C61.3941 109.834 61.4081 109.842 61.4221 109.85C61.4401 109.86 61.4581 109.868 61.4771 109.877C61.4941 109.887 61.5131 109.895 61.5311 109.902C61.5481 109.911 61.5671 109.918 61.5851 109.925C61.5981 109.93 61.6101 109.935 61.6241 109.94C61.6241 109.94 61.6261 109.941 61.6281 109.941C61.6311 109.942 61.6351 109.944 61.6381 109.945C61.6571 109.952 61.674 109.958 61.692 109.963C61.711 109.969 61.7281 109.974 61.7461 109.978C61.7651 109.983 61.7831 109.987 61.8011 109.991C61.8201 109.995 61.838 109.997 61.856 110H61.8571C61.8781 110.003 61.896 110.005 61.916 110.006C61.937 110.008 61.9571 110.009 61.9771 110.009C61.9991 110.009 62.0211 110.007 62.0421 110.006C62.0481 110.005 62.0541 110.004 62.0591 110.003C62.0631 110.002 62.067 110.002 62.071 110.001C62.085 109.999 62.0991 109.998 62.1131 109.995C62.1421 109.989 62.1711 109.981 62.1981 109.972C62.2151 109.967 62.2301 109.96 62.2461 109.954L63.773 109.066C63.715 109.081 63.6571 109.096 63.5941 109.104Z" fill="#6C7890"/>
<path d="M64.196 95.405L64.154 110.145C64.153 110.328 64.135 110.497 64.104 110.652C64.103 110.656 64.102 110.66 64.102 110.664C64.07 110.818 64.023 110.958 63.962 111.083C63.961 111.086 63.959 111.089 63.957 111.092C63.908 111.192 63.846 111.276 63.779 111.359C63.757 111.387 63.735 111.419 63.71 111.445C63.628 111.53 63.539 111.606 63.439 111.665L64.966 110.777C65.067 110.718 65.155 110.642 65.237 110.557C65.262 110.531 65.284 110.499 65.307 110.471C65.339 110.431 65.375 110.396 65.404 110.351C65.433 110.305 65.46 110.255 65.485 110.205C65.486 110.202 65.488 110.199 65.49 110.196C65.491 110.194 65.492 110.192 65.493 110.19C65.514 110.146 65.533 110.101 65.55 110.054C65.566 110.014 65.579 109.973 65.591 109.93C65.603 109.892 65.612 109.853 65.622 109.813C65.624 109.801 65.626 109.79 65.629 109.778C65.63 109.773 65.631 109.769 65.631 109.764C65.636 109.743 65.641 109.722 65.645 109.701C65.651 109.665 65.657 109.629 65.661 109.592C65.666 109.556 65.67 109.52 65.673 109.483C65.676 109.448 65.678 109.412 65.68 109.375C65.681 109.34 65.682 109.304 65.682 109.267C65.682 109.265 65.682 109.263 65.682 109.26L65.724 94.52L64.196 95.405Z" fill="#374353"/>
<path d="M63.389 92.895C62.883 92.078 62.192 91.354 61.431 90.915L33.975 75.063C33.209 74.621 32.516 74.545 32.012 74.78C31.508 75.014 31.192 75.553 31.19 76.349L31.148 91.089C31.146 91.884 31.458 92.786 31.959 93.607C32.461 94.416 33.151 95.145 33.917 95.587L61.373 111.439C62.135 111.878 62.827 111.95 63.337 111.717C63.841 111.483 64.152 110.941 64.154 110.145L64.196 95.405C64.197 94.609 63.891 93.711 63.389 92.895ZM62.604 109.251C62.603 109.601 62.463 109.839 62.242 109.944C62.019 110.045 61.715 110.011 61.378 109.817L33.922 93.965C33.585 93.771 33.281 93.451 33.056 93.088C32.84 92.735 32.703 92.337 32.704 91.986L32.746 77.246C32.747 76.901 32.886 76.658 33.108 76.558C33.33 76.453 33.634 76.486 33.971 76.68L61.427 92.532C61.764 92.726 62.069 93.046 62.289 93.406C62.51 93.763 62.647 94.166 62.647 94.509L62.604 109.251Z" fill="#49596E"/>
<path d="M65.722 94.414C65.72 94.378 65.719 94.341 65.716 94.305C65.714 94.268 65.711 94.231 65.707 94.194C65.704 94.157 65.699 94.119 65.694 94.082C65.689 94.044 65.684 94.006 65.678 93.968C65.675 93.948 65.671 93.93 65.668 93.91C65.667 93.907 65.666 93.903 65.666 93.899C65.663 93.882 65.66 93.866 65.657 93.85C65.649 93.81 65.641 93.77 65.633 93.73C65.624 93.689 65.614 93.648 65.605 93.607C65.594 93.565 65.584 93.524 65.572 93.482C65.56 93.441 65.549 93.399 65.536 93.358C65.527 93.331 65.518 93.303 65.51 93.276C65.509 93.272 65.508 93.269 65.507 93.265C65.503 93.254 65.5 93.243 65.496 93.234C65.482 93.193 65.469 93.152 65.454 93.112C65.439 93.072 65.425 93.032 65.409 92.993C65.393 92.953 65.378 92.914 65.361 92.875C65.344 92.836 65.328 92.797 65.31 92.757C65.292 92.717 65.275 92.678 65.256 92.638C65.255 92.636 65.254 92.634 65.254 92.634L65.253 92.632C65.233 92.591 65.214 92.55 65.193 92.508C65.168 92.458 65.142 92.408 65.116 92.36C65.078 92.287 65.038 92.215 64.996 92.144C64.97 92.099 64.943 92.054 64.916 92.009C64.865 91.928 64.814 91.848 64.76 91.769C64.709 91.694 64.656 91.62 64.603 91.547C64.573 91.506 64.54 91.465 64.509 91.424C64.505 91.42 64.502 91.415 64.499 91.411C64.493 91.404 64.488 91.397 64.483 91.39C64.447 91.344 64.41 91.298 64.372 91.253C64.336 91.209 64.3 91.166 64.263 91.124C64.225 91.081 64.188 91.039 64.149 90.998C64.111 90.957 64.073 90.917 64.034 90.877L64.033 90.876L64.03 90.873C63.988 90.83 63.947 90.789 63.904 90.748C63.861 90.707 63.817 90.666 63.773 90.627C63.729 90.587 63.685 90.549 63.64 90.511C63.599 90.476 63.558 90.443 63.516 90.409L63.512 90.406C63.51 90.405 63.508 90.403 63.506 90.401C63.462 90.367 63.418 90.333 63.373 90.3C63.33 90.268 63.286 90.237 63.243 90.207C63.2 90.177 63.157 90.149 63.114 90.122C63.072 90.095 63.029 90.069 62.987 90.044C62.977 90.038 62.966 90.032 62.957 90.026L35.501 74.174C35.469 74.156 35.437 74.137 35.403 74.119C35.362 74.096 35.32 74.075 35.279 74.054C35.237 74.033 35.197 74.014 35.156 73.996C35.115 73.977 35.075 73.961 35.035 73.944C35.006 73.932 34.976 73.922 34.948 73.911C34.944 73.91 34.941 73.909 34.938 73.908C34.93 73.905 34.921 73.901 34.914 73.899C34.873 73.884 34.833 73.871 34.793 73.859C34.752 73.846 34.711 73.836 34.671 73.825C34.63 73.815 34.588 73.805 34.548 73.798C34.505 73.79 34.463 73.783 34.422 73.777C34.378 73.771 34.334 73.766 34.291 73.763C34.245 73.76 34.199 73.758 34.155 73.758C34.105 73.759 34.057 73.761 34.009 73.765C33.992 73.767 33.978 73.77 33.962 73.772C33.953 73.773 33.944 73.775 33.936 73.776C33.907 73.78 33.877 73.783 33.849 73.789C33.783 73.802 33.719 73.819 33.657 73.841C33.617 73.856 33.577 73.871 33.538 73.889C33.503 73.906 33.468 73.924 33.435 73.944L31.908 74.832C31.941 74.812 31.976 74.794 32.012 74.778C32.134 74.721 32.268 74.684 32.409 74.665C32.419 74.664 32.428 74.662 32.436 74.661C32.579 74.643 32.733 74.644 32.894 74.666H32.895C33.059 74.688 33.232 74.732 33.411 74.797C33.415 74.798 33.418 74.799 33.421 74.801C33.601 74.866 33.785 74.952 33.975 75.062L61.431 90.914C61.621 91.024 61.806 91.151 61.986 91.293C61.986 91.293 61.988 91.295 61.99 91.296C62.169 91.438 62.341 91.594 62.506 91.762L62.508 91.764C62.671 91.931 62.827 92.11 62.974 92.297C62.977 92.302 62.98 92.306 62.983 92.31C63.129 92.498 63.265 92.693 63.39 92.895C63.515 93.098 63.628 93.307 63.728 93.519C63.827 93.729 63.911 93.941 63.98 94.152C63.981 94.156 63.983 94.16 63.984 94.163C64.051 94.372 64.105 94.581 64.14 94.786C64.141 94.79 64.142 94.794 64.142 94.797C64.178 95.004 64.197 95.208 64.197 95.405L65.724 94.517C65.723 94.483 65.723 94.448 65.722 94.414Z" fill="#6C7890"/>
<path d="M60.078 80.299L80.597 68.376L132.995 122.776L112.478 134.7L60.078 80.299Z" fill="#E1E1E1"/>
<path d="M112.478 134.7L132.995 122.776L132.927 147.076L112.408 159L112.478 134.7Z" fill="#9B9B9B"/>
<path d="M60.078 80.299L112.478 134.7L112.408 159L59.942 128.708L60.078 80.299Z" fill="#E7E7E7"/>
<path d="M58.319 76.182L78.837 64.258L134.085 121.62L113.567 133.544L58.319 76.182Z" fill="#AFAFAF"/>
<path d="M113.567 133.544L134.085 121.62L134.077 124.172L113.56 136.095L113.567 133.544Z" fill="#747474"/>
<path d="M58.319 76.182L113.567 133.544L113.56 136.095L58.293 78.756L58.319 76.182Z" fill="#9B9B9B"/>
<path d="M78.174 154.328L93.563 145.385L93.555 148.134L78.166 157.078L78.174 154.328Z" fill="#79736F"/>
<path d="M44.011 134.604L59.4001 125.661L93.563 145.385L78.174 154.328L44.011 134.604Z" fill="#8B8580"/>
<path d="M78.174 154.328L78.166 157.078L44.0031 137.354L44.011 134.604L78.174 154.328Z" fill="#A19A94"/>
<path d="M45.324 103.479L60.713 94.537L76.988 115.105L61.599 124.048L45.324 103.479Z" fill="#E8E3D0"/>
<path d="M78.229 133.943L93.617 125.001L93.56 145.403L78.171 154.345L78.229 133.943Z" fill="#D6D0BF"/>
<path d="M61.63 112.893L77.02 103.951L93.617 125.001L78.229 133.943L61.63 112.893Z" fill="#E8E3D0"/>
<path d="M61.63 112.893L78.229 133.943L78.171 154.345L45.235 135.33L45.324 103.479L61.599 124.048L61.63 112.893Z" fill="#F5F2E3"/>
<path d="M44.597 100.32L59.9861 91.377L77.002 112.866L61.7321 111.073L61.614 121.808L44.597 100.32Z" fill="#B4AEA9"/>
<path d="M44.59 102.68L44.597 100.32L61.614 121.808L61.607 124.169L44.59 102.68Z" fill="#A19A94"/>
<path d="M78.243 131.704L93.632 122.761L93.6251 125.122L78.2371 134.064L78.243 131.704Z" fill="#79736F"/>
<path d="M60.582 109.308L75.971 100.366L93.632 122.761L78.243 131.704L60.582 109.308Z" fill="#B4AEA9"/>
<path d="M60.5821 109.308L78.243 131.704L78.2371 134.064L60.576 111.669L60.5821 109.308Z" fill="#A19A94"/>
<path d="M110.697 94.302C110.694 94.313 110.692 94.323 110.688 94.333C110.65 94.441 110.592 94.548 110.521 94.652C110.509 94.669 110.5 94.685 110.488 94.702C110.414 94.802 110.324 94.8971 110.22 94.9901C110.156 95.0471 110.075 95.099 110 95.153C109.918 95.211 109.846 95.27 109.752 95.324C109.559 95.432 109.345 95.519 109.123 95.594C109.038 95.623 108.95 95.647 108.861 95.67C108.754 95.7 108.645 95.73 108.534 95.752C108.373 95.784 108.211 95.813 108.045 95.83C108.036 95.831 108.028 95.833 108.021 95.834C107.828 95.854 107.632 95.86 107.436 95.86C107.413 95.86 107.388 95.861 107.364 95.86C107.176 95.858 106.988 95.844 106.803 95.824C106.779 95.821 106.753 95.818 106.729 95.815C106.548 95.793 106.372 95.759 106.2 95.718C106.166 95.71 106.133 95.702 106.098 95.693C105.917 95.646 105.741 95.593 105.574 95.526C105.391 95.454 105.218 95.37 105.057 95.274C104.429 94.898 104.117 94.413 104.118 93.928L104.051 106.933C104.049 107.417 104.362 107.903 104.99 108.279C105.15 108.375 105.324 108.459 105.507 108.532H105.509C105.639 108.584 105.773 108.629 105.911 108.669C105.95 108.68 105.991 108.688 106.03 108.698C106.064 108.707 106.098 108.715 106.132 108.722C106.175 108.733 106.216 108.744 106.259 108.753C106.367 108.776 106.477 108.795 106.588 108.811C106.612 108.814 106.636 108.816 106.66 108.819C106.685 108.822 106.71 108.825 106.735 108.828C106.794 108.835 106.851 108.843 106.911 108.848C107.019 108.857 107.129 108.863 107.238 108.866C107.258 108.866 107.277 108.865 107.297 108.865C107.322 108.866 107.345 108.865 107.369 108.865C107.438 108.865 107.508 108.867 107.577 108.864C107.701 108.86 107.824 108.851 107.947 108.84C107.949 108.84 107.951 108.839 107.953 108.839C107.962 108.838 107.972 108.836 107.98 108.835C108.112 108.821 108.243 108.804 108.371 108.78C108.404 108.774 108.434 108.763 108.467 108.756C108.579 108.734 108.687 108.704 108.796 108.674C108.86 108.656 108.93 108.646 108.994 108.625C109.016 108.617 109.034 108.605 109.057 108.598C109.279 108.523 109.493 108.436 109.685 108.327C109.712 108.311 109.739 108.297 109.764 108.281C109.829 108.242 109.874 108.197 109.933 108.156C110.008 108.102 110.089 108.051 110.154 107.993C110.165 107.983 110.179 107.975 110.19 107.966C110.266 107.896 110.335 107.823 110.393 107.747C110.404 107.733 110.411 107.719 110.421 107.705C110.434 107.688 110.443 107.672 110.454 107.655C110.478 107.619 110.506 107.584 110.526 107.548C110.561 107.487 110.591 107.423 110.615 107.36C110.618 107.352 110.619 107.344 110.622 107.337C110.626 107.326 110.628 107.316 110.631 107.306C110.646 107.262 110.66 107.218 110.669 107.173C110.682 107.11 110.689 107.047 110.691 106.984C110.691 106.974 110.692 106.963 110.692 106.954L110.759 93.949C110.758 94.068 110.736 94.186 110.697 94.302Z" fill="#CECECE"/>
<path d="M109.355 91.582C108.324 90.966 106.628 90.949 105.568 91.544C104.507 92.139 104.484 93.121 105.514 93.737C106.545 94.353 108.241 94.37 109.301 93.775C110.362 93.18 110.385 92.198 109.355 91.582Z" fill="#5D677C"/>
<path d="M109.361 89.5411C109.231 89.4641 109.091 89.3961 108.944 89.3381L108.943 89.3371C108.838 89.2961 108.73 89.259 108.618 89.228C108.587 89.219 108.554 89.2121 108.521 89.2041C108.494 89.1971 108.467 89.1911 108.44 89.1841C108.406 89.1761 108.372 89.166 108.336 89.159C108.249 89.141 108.16 89.1261 108.07 89.1131C108.051 89.1101 108.031 89.1091 108.011 89.1061C107.991 89.1041 107.972 89.102 107.952 89.099C107.904 89.094 107.857 89.0871 107.809 89.0831C107.721 89.0761 107.633 89.071 107.545 89.069C107.529 89.068 107.514 89.069 107.498 89.069C107.477 89.069 107.458 89.069 107.438 89.069C107.382 89.069 107.327 89.0681 107.271 89.0701C107.171 89.0731 107.072 89.08 106.972 89.09C106.97 89.09 106.969 89.0911 106.967 89.0911C106.96 89.0921 106.952 89.093 106.945 89.094C106.838 89.106 106.733 89.119 106.63 89.138C106.604 89.143 106.579 89.1521 106.553 89.1581C106.462 89.1761 106.376 89.2001 106.288 89.2231C106.235 89.2381 106.18 89.246 106.128 89.263C106.11 89.269 106.095 89.279 106.077 89.284C105.898 89.346 105.726 89.4161 105.57 89.5031C105.549 89.5151 105.528 89.5271 105.506 89.5401C105.454 89.5711 105.417 89.6071 105.37 89.6411C105.308 89.6841 105.244 89.7261 105.192 89.7731C105.183 89.7811 105.171 89.7871 105.163 89.7951C105.1 89.8531 105.046 89.9111 104.999 89.9721C104.99 89.9831 104.984 89.9941 104.976 90.0061C104.966 90.0191 104.959 90.0321 104.95 90.0461C104.93 90.0741 104.908 90.1031 104.891 90.1321C104.863 90.1821 104.839 90.233 104.82 90.284C104.818 90.29 104.817 90.2971 104.815 90.3031C104.811 90.3121 104.81 90.3211 104.807 90.3281C104.795 90.3641 104.784 90.399 104.777 90.435C104.766 90.487 104.76 90.5371 104.759 90.5881C104.759 90.5971 104.759 90.605 104.758 90.612L104.752 95.1751C104.753 95.0791 104.771 94.9851 104.801 94.8911C104.804 94.8831 104.806 94.874 104.809 94.866C104.839 94.779 104.886 94.6931 104.944 94.6091C104.953 94.5951 104.961 94.582 104.97 94.569C105.03 94.488 105.103 94.4111 105.187 94.3371C105.239 94.2901 105.303 94.2481 105.365 94.2051C105.43 94.1581 105.489 94.1101 105.564 94.0671C105.72 93.9801 105.892 93.9101 106.071 93.8481C106.139 93.8261 106.211 93.8061 106.282 93.7871C106.37 93.7641 106.457 93.7391 106.547 93.7221C106.676 93.6961 106.807 93.6731 106.94 93.6581C106.948 93.6571 106.955 93.656 106.961 93.655C107.116 93.639 107.275 93.633 107.432 93.633C107.452 93.633 107.472 93.633 107.492 93.633C107.643 93.635 107.795 93.6461 107.944 93.6621C107.965 93.6651 107.984 93.6671 108.004 93.6691C108.15 93.6881 108.292 93.7151 108.431 93.7471C108.459 93.7541 108.487 93.76 108.514 93.767C108.66 93.804 108.801 93.847 108.936 93.901C109.083 93.96 109.223 94.0271 109.353 94.1041C109.86 94.4071 110.112 94.798 110.111 95.189L110.117 90.6261C110.119 90.2351 109.867 89.8431 109.361 89.5411Z" fill="#26323F"/>
<path d="M111.123 88.551C109.145 87.369 105.894 87.336 103.86 88.478C101.826 89.62 101.779 91.503 103.756 92.685C105.734 93.867 108.985 93.9 111.019 92.758C113.054 91.617 113.101 89.734 111.123 88.551ZM109.307 91.734C108.246 92.329 106.551 92.312 105.52 91.696C104.49 91.08 104.513 90.0971 105.574 89.5031C106.635 88.9081 108.33 88.9251 109.361 89.5411C110.391 90.1571 110.367 91.139 109.307 91.734Z" fill="#6C7890"/>
<path d="M112.563 90.793C112.558 90.845 112.555 90.897 112.545 90.948C112.536 90.995 112.522 91.041 112.509 91.087C112.496 91.137 112.485 91.187 112.466 91.236C112.45 91.28 112.429 91.323 112.409 91.367C112.387 91.42 112.364 91.471 112.337 91.523C112.315 91.561 112.29 91.598 112.267 91.636C112.229 91.696 112.19 91.758 112.145 91.818C112.119 91.852 112.089 91.8861 112.061 91.9211C111.998 91.9951 111.93 92.0681 111.857 92.1411C111.821 92.1751 111.787 92.21 111.749 92.244C111.7 92.288 111.646 92.33 111.594 92.372C111.544 92.412 111.493 92.4521 111.44 92.4901C111.382 92.5311 111.321 92.571 111.258 92.611C111.181 92.661 111.106 92.712 111.021 92.758C110.723 92.925 110.393 93.06 110.05 93.177C109.918 93.222 109.781 93.258 109.645 93.295C109.478 93.341 109.31 93.3871 109.137 93.4211C108.889 93.4711 108.639 93.516 108.383 93.543C108.37 93.544 108.357 93.547 108.343 93.548C108.044 93.578 107.741 93.5901 107.44 93.5891C107.402 93.5891 107.365 93.59 107.328 93.59C107.036 93.585 106.746 93.566 106.459 93.532C106.421 93.528 106.383 93.524 106.345 93.519C106.067 93.484 105.793 93.432 105.526 93.37C105.473 93.358 105.422 93.345 105.37 93.332C105.091 93.26 104.817 93.177 104.56 93.074C104.277 92.963 104.008 92.8331 103.76 92.6841C102.787 92.1031 102.305 91.352 102.307 90.603L102.294 95.147C102.292 95.896 102.774 96.647 103.747 97.228C103.995 97.376 104.263 97.506 104.546 97.619L104.549 97.62C104.749 97.7 104.957 97.769 105.171 97.831C105.232 97.849 105.295 97.86 105.357 97.876C105.41 97.89 105.461 97.902 105.514 97.915C105.58 97.931 105.644 97.949 105.711 97.963C105.878 97.998 106.048 98.028 106.22 98.052C106.257 98.057 106.295 98.06 106.333 98.065C106.371 98.07 106.408 98.074 106.447 98.078C106.538 98.089 106.628 98.1 106.719 98.108C106.886 98.122 107.055 98.131 107.225 98.135C107.254 98.136 107.285 98.134 107.315 98.134C107.353 98.135 107.39 98.134 107.427 98.134C107.534 98.134 107.642 98.136 107.749 98.132C107.94 98.126 108.132 98.113 108.321 98.094C108.324 98.094 108.327 98.093 108.331 98.093C108.345 98.092 108.357 98.089 108.371 98.087C108.575 98.066 108.778 98.0381 108.976 98.0031C109.027 97.9931 109.074 97.976 109.124 97.966C109.298 97.931 109.464 97.886 109.632 97.84C109.734 97.812 109.841 97.795 109.94 97.763C109.974 97.752 110.003 97.733 110.037 97.721C110.381 97.605 110.711 97.47 111.009 97.303C111.051 97.28 111.091 97.256 111.131 97.232C111.172 97.208 111.206 97.181 111.246 97.156C111.309 97.116 111.37 97.076 111.429 97.034C111.482 96.996 111.531 96.957 111.581 96.918C111.635 96.875 111.687 96.832 111.737 96.788C111.754 96.773 111.773 96.76 111.789 96.745C111.81 96.726 111.824 96.705 111.845 96.685C111.919 96.613 111.988 96.5391 112.05 96.4641C112.067 96.4431 112.088 96.425 112.105 96.405C112.116 96.39 112.123 96.376 112.133 96.362C112.179 96.301 112.218 96.241 112.256 96.179C112.274 96.152 112.296 96.124 112.312 96.097C112.317 96.087 112.321 96.077 112.326 96.067C112.354 96.015 112.377 95.963 112.399 95.911C112.415 95.876 112.435 95.842 112.449 95.806C112.452 95.798 112.453 95.788 112.456 95.78C112.474 95.731 112.485 95.681 112.499 95.633C112.509 95.594 112.524 95.556 112.532 95.518C112.533 95.509 112.533 95.501 112.535 95.493C112.544 95.442 112.548 95.391 112.553 95.34C112.556 95.302 112.565 95.263 112.566 95.225C112.567 95.209 112.567 95.194 112.567 95.179L112.58 90.634C112.576 90.686 112.568 90.739 112.563 90.793Z" fill="#394757"/>
<path d="M133.821 68.384C133.86 68.37 133.898 68.361 133.937 68.348C134.075 68.304 134.209 68.266 134.342 68.232C134.47 68.2 134.593 68.175 134.716 68.152C134.799 68.137 134.883 68.119 134.963 68.107C135.035 68.097 135.105 68.092 135.175 68.085C135.279 68.075 135.384 68.067 135.485 68.065C135.537 68.063 135.587 68.064 135.638 68.066C135.752 68.068 135.865 68.076 135.971 68.088C136.001 68.092 136.034 68.094 136.063 68.099C136.196 68.12 136.321 68.149 136.439 68.187C136.461 68.194 136.483 68.203 136.504 68.209C136.624 68.252 136.739 68.301 136.844 68.361L133.793 66.588C133.785 66.584 133.778 66.58 133.77 66.575C133.705 66.539 133.637 66.506 133.566 66.476C133.53 66.46 133.49 66.45 133.453 66.436C133.432 66.428 133.41 66.42 133.388 66.414C133.368 66.407 133.351 66.399 133.331 66.393C133.243 66.368 133.151 66.347 133.056 66.33C133.042 66.327 133.027 66.327 133.012 66.325C132.983 66.32 132.951 66.318 132.92 66.314C132.857 66.306 132.795 66.295 132.73 66.292C132.684 66.289 132.634 66.292 132.587 66.291C132.536 66.29 132.485 66.289 132.434 66.29C132.4 66.291 132.369 66.288 132.334 66.289C132.267 66.292 132.193 66.304 132.124 66.311C132.054 66.318 131.984 66.323 131.912 66.332C131.889 66.335 131.867 66.335 131.844 66.339C131.786 66.348 131.724 66.366 131.665 66.377C131.542 66.4 131.419 66.425 131.292 66.457C131.259 66.465 131.229 66.468 131.197 66.477C131.095 66.505 130.989 66.541 130.883 66.574C130.845 66.587 130.808 66.596 130.77 66.609C130.601 66.667 130.429 66.73 130.253 66.802C130.238 66.808 130.223 66.817 130.208 66.823C129.973 66.922 129.732 67.032 129.487 67.159L132.538 68.931C132.783 68.804 133.023 68.695 133.259 68.595C133.451 68.518 133.639 68.446 133.821 68.384Z" fill="#EEEDEA"/>
<path d="M127.907 66.697C128.066 66.625 128.223 66.554 128.378 66.494C128.435 66.472 128.49 66.451 128.546 66.43C128.724 66.366 128.898 66.307 129.067 66.258C129.097 66.249 129.128 66.238 129.157 66.231C129.259 66.203 129.354 66.186 129.454 66.165C129.57 66.139 129.689 66.108 129.801 66.091C129.991 66.061 130.174 66.041 130.349 66.034C130.373 66.033 130.396 66.035 130.419 66.035C130.566 66.032 130.707 66.037 130.843 66.051C130.878 66.055 130.913 66.059 130.947 66.064C131.092 66.084 131.23 66.111 131.359 66.15C131.375 66.155 131.389 66.162 131.406 66.167C131.542 66.212 131.671 66.266 131.787 66.334L128.736 64.561C128.729 64.557 128.721 64.553 128.714 64.548C128.65 64.512 128.581 64.479 128.511 64.449C128.461 64.429 128.407 64.412 128.355 64.394C128.338 64.389 128.324 64.382 128.308 64.377C128.296 64.373 128.286 64.369 128.275 64.365C128.187 64.34 128.094 64.318 128 64.302C127.967 64.296 127.931 64.294 127.897 64.289C127.863 64.284 127.828 64.281 127.793 64.277C127.753 64.273 127.715 64.265 127.674 64.263C127.576 64.256 127.473 64.258 127.369 64.26C127.346 64.261 127.323 64.259 127.299 64.26C127.292 64.26 127.286 64.259 127.279 64.26C127.119 64.267 126.952 64.283 126.779 64.31C126.77 64.312 126.76 64.315 126.752 64.316C126.64 64.334 126.52 64.365 126.403 64.39C126.313 64.41 126.228 64.422 126.136 64.448C126.126 64.451 126.116 64.454 126.107 64.457C126.078 64.465 126.047 64.477 126.017 64.484C125.847 64.534 125.674 64.592 125.497 64.657C125.441 64.677 125.386 64.699 125.329 64.72C125.28 64.74 125.233 64.755 125.183 64.776C125.076 64.82 124.967 64.875 124.859 64.924C124.787 64.956 124.716 64.987 124.643 65.022C124.416 65.132 124.187 65.252 123.954 65.387C123.602 65.59 123.255 65.814 122.924 66.05L125.974 67.823C126.306 67.586 126.654 67.363 127.004 67.16C127.238 67.025 127.468 66.905 127.694 66.794C127.766 66.759 127.836 66.73 127.907 66.697Z" fill="#EEEDEA"/>
<path d="M118.24 72.039C118.245 72.023 118.25 72.008 118.255 71.991C118.284 71.899 118.318 71.806 118.356 71.713C118.364 71.695 118.372 71.677 118.378 71.658C118.418 71.562 118.461 71.467 118.508 71.37C118.515 71.356 118.522 71.343 118.529 71.329C118.573 71.242 118.619 71.154 118.668 71.067C118.681 71.046 118.693 71.023 118.705 71.002C118.762 70.902 118.822 70.803 118.887 70.703C118.903 70.679 118.919 70.654 118.936 70.63C118.987 70.553 119.039 70.475 119.095 70.398C119.131 70.347 119.169 70.297 119.206 70.248C119.248 70.191 119.29 70.135 119.334 70.079C119.405 69.989 119.479 69.9 119.554 69.811C119.58 69.781 119.606 69.75 119.632 69.718C119.774 69.557 119.923 69.399 120.078 69.242C120.112 69.209 120.145 69.176 120.18 69.142C120.293 69.032 120.409 68.923 120.53 68.817C120.547 68.801 120.564 68.785 120.582 68.769C120.72 68.65 120.861 68.534 121.006 68.421C121.045 68.391 121.086 68.36 121.126 68.33C121.237 68.246 121.35 68.165 121.465 68.086C121.509 68.056 121.553 68.025 121.597 67.996C121.75 67.894 121.906 67.796 122.063 67.705C122.228 67.609 122.389 67.525 122.549 67.447C122.6 67.423 122.65 67.401 122.7 67.378C122.799 67.333 122.895 67.291 122.991 67.253C123.193 67.172 123.39 67.103 123.579 67.051C123.644 67.032 123.705 67.023 123.768 67.009C123.855 66.989 123.945 66.966 124.029 66.952C124.163 66.931 124.292 66.918 124.415 66.913C124.433 66.913 124.449 66.914 124.467 66.914C124.57 66.912 124.668 66.916 124.763 66.926C124.788 66.928 124.813 66.931 124.837 66.934C124.939 66.949 125.036 66.967 125.126 66.996C125.138 67 125.148 67.004 125.16 67.008C125.256 67.04 125.347 67.078 125.429 67.125L122.378 65.353C122.373 65.35 122.367 65.347 122.362 65.344C122.316 65.318 122.268 65.294 122.217 65.274C122.183 65.259 122.146 65.248 122.109 65.236C122.097 65.232 122.087 65.227 122.076 65.224C122.067 65.221 122.059 65.217 122.052 65.215C121.989 65.196 121.924 65.182 121.857 65.17C121.835 65.166 121.81 65.165 121.787 65.162C121.763 65.159 121.738 65.156 121.713 65.153C121.685 65.15 121.656 65.145 121.627 65.143C121.56 65.139 121.488 65.14 121.417 65.141C121.399 65.142 121.383 65.14 121.365 65.141C121.359 65.141 121.354 65.141 121.348 65.141C121.236 65.146 121.118 65.158 120.996 65.176C120.99 65.177 120.984 65.179 120.978 65.18C120.894 65.194 120.804 65.216 120.716 65.236C120.656 65.25 120.6 65.258 120.539 65.274C120.535 65.275 120.531 65.277 120.527 65.278C120.338 65.33 120.141 65.4 119.939 65.48C119.918 65.489 119.899 65.493 119.878 65.502C119.803 65.533 119.725 65.571 119.648 65.606C119.597 65.629 119.547 65.65 119.497 65.675C119.337 65.752 119.176 65.837 119.011 65.932C118.853 66.024 118.698 66.121 118.545 66.224C118.5 66.253 118.457 66.284 118.413 66.314C118.299 66.392 118.185 66.474 118.075 66.558C118.034 66.588 117.993 66.617 117.953 66.649C117.809 66.761 117.668 66.877 117.531 66.997C117.513 67.013 117.495 67.029 117.476 67.046C117.357 67.151 117.242 67.26 117.128 67.369C117.11 67.386 117.092 67.401 117.075 67.419C117.058 67.436 117.044 67.453 117.026 67.47C116.871 67.625 116.721 67.783 116.58 67.946C116.576 67.95 116.572 67.954 116.568 67.959C116.545 67.985 116.524 68.013 116.502 68.039C116.427 68.128 116.354 68.217 116.283 68.306C116.271 68.321 116.259 68.335 116.247 68.35C116.215 68.391 116.186 68.433 116.155 68.474C116.117 68.525 116.079 68.576 116.043 68.626C116.032 68.641 116.021 68.655 116.01 68.671C115.966 68.732 115.926 68.795 115.884 68.857C115.868 68.881 115.851 68.906 115.835 68.93C115.832 68.935 115.828 68.94 115.825 68.946C115.772 69.027 115.722 69.108 115.676 69.189C115.668 69.203 115.661 69.216 115.654 69.229C115.641 69.251 115.63 69.273 115.617 69.295C115.596 69.333 115.573 69.372 115.553 69.411C115.528 69.459 115.503 69.507 115.48 69.555C115.473 69.57 115.465 69.584 115.458 69.598C115.454 69.605 115.451 69.612 115.447 69.618C115.416 69.683 115.387 69.748 115.359 69.812C115.347 69.836 115.338 69.861 115.328 69.886C115.321 69.904 115.313 69.922 115.306 69.94C115.298 69.96 115.289 69.98 115.282 69.999C115.258 70.062 115.236 70.124 115.216 70.185C115.212 70.196 115.209 70.207 115.205 70.218C115.2 70.235 115.195 70.251 115.19 70.267C115.179 70.302 115.167 70.337 115.158 70.372C115.144 70.423 115.133 70.472 115.121 70.521C115.118 70.534 115.114 70.547 115.112 70.56C115.111 70.565 115.109 70.57 115.108 70.575C115.09 70.656 115.077 70.735 115.067 70.813C115.065 70.827 115.064 70.839 115.062 70.853L118.113 72.625C118.124 72.529 118.141 72.432 118.163 72.332C118.165 72.319 118.169 72.307 118.172 72.295C118.191 72.211 118.214 72.125 118.24 72.039Z" fill="#EEEDEA"/>
<path d="M109.287 85.525C109.289 85.515 109.291 85.507 109.294 85.497C109.343 85.317 109.403 85.135 109.475 84.949C109.476 84.946 109.477 84.944 109.478 84.942C109.549 84.758 109.631 84.572 109.722 84.385C109.728 84.371 109.735 84.359 109.742 84.346C109.832 84.163 109.93 83.979 110.039 83.794C110.043 83.787 110.047 83.781 110.051 83.774C110.149 83.609 110.255 83.443 110.365 83.277C110.393 83.235 110.421 83.194 110.449 83.152C110.562 82.987 110.681 82.823 110.806 82.66C110.819 82.643 110.829 82.628 110.842 82.611C110.99 82.42 111.147 82.229 111.31 82.041L108.259 80.268L108.258 80.27C108.097 80.456 107.943 80.643 107.797 80.831C107.795 80.833 107.793 80.836 107.791 80.838C107.778 80.856 107.767 80.872 107.753 80.89C107.651 81.023 107.552 81.156 107.458 81.289C107.437 81.319 107.419 81.349 107.398 81.379C107.369 81.421 107.341 81.463 107.313 81.505C107.273 81.565 107.231 81.624 107.193 81.684C107.126 81.789 107.061 81.895 107 82C106.996 82.008 106.991 82.015 106.987 82.021C106.985 82.023 106.983 82.026 106.982 82.029C106.92 82.134 106.862 82.24 106.805 82.345C106.765 82.421 106.727 82.497 106.69 82.573C106.683 82.586 106.677 82.598 106.67 82.611C106.666 82.62 106.661 82.628 106.657 82.636C106.612 82.729 106.57 82.82 106.531 82.911C106.493 82.998 106.458 83.083 106.426 83.169C106.426 83.169 106.424 83.172 106.424 83.174C106.424 83.174 106.423 83.176 106.422 83.178C106.388 83.266 106.357 83.354 106.327 83.441C106.298 83.53 106.27 83.62 106.246 83.708C106.244 83.713 106.243 83.719 106.242 83.724C106.239 83.733 106.238 83.742 106.235 83.75C106.213 83.833 106.192 83.915 106.174 83.995C106.158 84.069 106.149 84.14 106.137 84.213C106.133 84.239 106.127 84.266 106.123 84.291C106.121 84.305 106.118 84.318 106.116 84.332C106.096 84.484 106.087 84.634 106.087 84.779L105.506 90.218L108.557 91.99L109.138 86.551C109.138 86.394 109.151 86.23 109.174 86.064C109.178 86.038 109.184 86.01 109.188 85.984C109.214 85.835 109.245 85.681 109.287 85.525Z" fill="#DCD6D6"/>
<path d="M111.013 79.892C111.02 79.863 111.027 79.832 111.035 79.803C111.069 79.667 111.107 79.53 111.155 79.39C111.159 79.377 111.164 79.365 111.169 79.352C111.22 79.204 111.277 79.053 111.343 78.902C111.345 78.897 111.347 78.892 111.349 78.888C111.414 78.74 111.486 78.59 111.562 78.44C111.575 78.416 111.586 78.391 111.599 78.366C111.675 78.221 111.757 78.076 111.843 77.93C111.865 77.895 111.887 77.86 111.908 77.824C111.979 77.709 112.054 77.592 112.131 77.477C112.162 77.43 112.193 77.384 112.225 77.337C112.295 77.235 112.372 77.133 112.447 77.03C112.492 76.969 112.535 76.909 112.582 76.848C112.63 76.784 112.682 76.723 112.732 76.66C112.826 76.543 112.921 76.426 113.02 76.309C113.063 76.259 113.108 76.21 113.152 76.161C113.338 75.952 113.53 75.746 113.731 75.545C113.76 75.516 113.788 75.486 113.818 75.457C114.002 75.276 114.193 75.1 114.389 74.927C114.438 74.884 114.489 74.843 114.539 74.8C114.69 74.671 114.845 74.543 115.003 74.42C115.071 74.365 115.142 74.313 115.212 74.26C115.361 74.147 115.515 74.037 115.669 73.93C115.735 73.884 115.802 73.837 115.869 73.792C116.089 73.646 116.311 73.505 116.539 73.374C116.788 73.231 117.032 73.103 117.273 72.986C117.349 72.95 117.422 72.919 117.497 72.884C117.706 72.789 117.914 72.696 118.114 72.622L115.063 70.85C114.961 70.887 114.859 70.927 114.755 70.97C114.653 71.012 114.549 71.064 114.446 71.111C114.371 71.145 114.298 71.176 114.221 71.214C113.98 71.331 113.736 71.457 113.487 71.602C113.259 71.733 113.038 71.873 112.817 72.02C112.75 72.065 112.684 72.112 112.617 72.158C112.462 72.265 112.309 72.375 112.159 72.488C112.09 72.541 112.02 72.593 111.951 72.647C111.793 72.771 111.638 72.899 111.486 73.029C111.437 73.071 111.386 73.111 111.338 73.154C111.141 73.327 110.95 73.504 110.765 73.685C110.757 73.694 110.747 73.701 110.74 73.709C110.72 73.73 110.702 73.751 110.681 73.772C110.479 73.974 110.285 74.18 110.1 74.389C110.075 74.417 110.046 74.445 110.022 74.473C110.002 74.494 109.987 74.516 109.968 74.537C109.867 74.653 109.773 74.771 109.678 74.89C109.639 74.939 109.597 74.986 109.559 75.035C109.549 75.048 109.541 75.061 109.53 75.074C109.483 75.137 109.438 75.199 109.392 75.262C109.335 75.339 109.276 75.415 109.221 75.493C109.204 75.516 109.19 75.54 109.174 75.563C109.141 75.61 109.111 75.657 109.078 75.705C109.039 75.764 108.997 75.823 108.96 75.882C108.924 75.938 108.892 75.994 108.858 76.05C108.835 76.086 108.813 76.122 108.792 76.158C108.778 76.179 108.764 76.202 108.751 76.224C108.689 76.328 108.632 76.433 108.576 76.537C108.566 76.556 108.558 76.573 108.549 76.592C108.535 76.616 108.524 76.642 108.511 76.666C108.483 76.721 108.454 76.775 108.428 76.83C108.383 76.923 108.34 77.016 108.301 77.107C108.3 77.109 108.299 77.111 108.298 77.113C108.296 77.118 108.294 77.122 108.292 77.127C108.257 77.209 108.223 77.291 108.191 77.373C108.165 77.441 108.141 77.51 108.118 77.577C108.113 77.591 108.108 77.603 108.104 77.616C108.101 77.623 108.098 77.631 108.096 77.638C108.066 77.727 108.039 77.816 108.015 77.904C108.002 77.946 107.994 77.988 107.984 78.03C107.976 78.059 107.969 78.089 107.963 78.118C107.957 78.143 107.949 78.17 107.943 78.195C107.919 78.311 107.899 78.427 107.884 78.539C107.865 78.689 107.856 78.836 107.857 78.978C107.858 79.513 108.002 79.949 108.259 80.267L111.31 82.04C111.052 81.721 110.909 81.286 110.908 80.75C110.907 80.607 110.917 80.461 110.935 80.311C110.952 80.175 110.98 80.035 111.013 79.892Z" fill="#EEEDEA"/>
<path d="M132.54 68.934C132.614 68.619 132.656 68.313 132.656 68.022C132.649 65.75 130.117 65.362 127.002 67.161C126.651 67.364 126.304 67.587 125.972 67.824C125.625 66.675 124.003 66.584 122.061 67.706C119.989 68.902 118.29 71.046 118.113 72.625C117.612 72.811 117.083 73.062 116.538 73.376C113.423 75.175 110.901 78.475 110.908 80.752C110.909 81.288 111.053 81.723 111.31 82.042C109.986 83.565 109.136 85.233 109.14 86.553L108.559 91.992L110.862 88.522C111.879 88.658 113.266 88.302 114.794 87.419C115.698 86.897 116.559 86.241 117.316 85.527C118.784 85.489 120.613 84.914 122.59 83.772C124.911 82.432 127.022 80.55 128.59 78.563C129.45 78.705 130.547 78.5 132.086 77.435C135.049 75.387 137.723 72.331 137.716 70.059C137.709 67.899 135.434 67.436 132.54 68.934Z" fill="#F5F5F5"/>
<path d="M107.934 138.093L107.903 149.226L96.139 142.434L96.171 131.302L107.934 138.093Z" fill="#49596E"/>
<path d="M95.881 142.585L96.397 142.285L100.12 144.434L99.605 144.734L95.881 142.585Z" fill="#E3EAF0"/>
<path d="M100.005 144.966L100.521 144.666L104.13 146.75L103.614 147.049L100.005 144.966Z" fill="#E3EAF0"/>
<path d="M95.913 131.452L96.429 131.153L96.397 142.285L95.881 142.585L95.913 131.452Z" fill="#AFC0D1"/>
<path d="M104.015 147.28L104.53 146.981L108.16 149.076L107.645 149.376L104.015 147.28Z" fill="#E3EAF0"/>
<path d="M100.036 133.833L100.552 133.533L100.521 144.666L100.005 144.966L100.036 133.833Z" fill="#AFC0D1"/>
<path d="M104.046 136.148L104.562 135.848L104.53 146.981L104.015 147.28L104.046 136.148Z" fill="#AFC0D1"/>
<path d="M95.488 130.799L96.002 130.5L108.614 137.78L108.098 138.08L95.488 130.799Z" fill="#E3EAF0"/>
<path d="M95.488 130.799L95.454 142.737L108.064 150.017L108.098 138.079L95.488 130.799ZM99.605 144.734L95.881 142.585L95.913 131.452L99.636 133.601L99.605 144.734ZM103.614 147.049L100.005 144.965L100.036 133.832L103.645 135.916L103.614 147.049ZM107.645 149.376L104.015 147.28L104.046 136.148L107.676 138.244L107.645 149.376Z" fill="#D1DCE6"/>
<path d="M108.098 138.08L108.614 137.78L108.579 149.717L108.064 150.017L108.098 138.08Z" fill="#AFC0D1"/>
<path d="M58.6991 128.108L58.674 137.151L49.118 131.634L49.144 122.592L58.6991 128.108Z" fill="#49596E"/>
<path d="M72.033 135.806L72.008 144.849L62.452 139.333L62.478 130.289L72.033 135.806Z" fill="#49596E"/>
<path d="M48.9091 131.755L49.3281 131.512L52.3531 133.258L51.9341 133.502L48.9091 131.755Z" fill="#E3EAF0"/>
<path d="M52.259 133.69L52.678 133.447L55.61 135.139L55.191 135.383L52.259 133.69Z" fill="#E3EAF0"/>
<path d="M48.9351 122.712L49.3541 122.469L49.3281 131.512L48.9091 131.755L48.9351 122.712Z" fill="#AFC0D1"/>
<path d="M55.516 135.571L55.935 135.327L58.884 137.03L58.465 137.273L55.516 135.571Z" fill="#E3EAF0"/>
<path d="M52.284 124.646L52.703 124.403L52.678 133.447L52.259 133.69L52.284 124.646Z" fill="#AFC0D1"/>
<path d="M55.542 126.527L55.961 126.284L55.935 135.327L55.516 135.571L55.542 126.527Z" fill="#AFC0D1"/>
<path d="M48.589 122.182L49.008 121.939L59.251 127.853L58.833 128.096L48.589 122.182Z" fill="#E3EAF0"/>
<path d="M48.589 122.182L48.561 131.879L58.805 137.793L58.833 128.096L48.589 122.182ZM51.934 133.502L48.91 131.756L48.935 122.713L51.959 124.459L51.934 133.502ZM55.191 135.383L52.259 133.691L52.284 124.647L55.217 126.34L55.191 135.383ZM58.465 137.273L55.516 135.571L55.542 126.527L58.49 128.23L58.465 137.273Z" fill="#D1DCE6"/>
<path d="M58.8331 128.096L59.2511 127.853L59.2241 137.55L58.8051 137.794L58.8331 128.096Z" fill="#AFC0D1"/>
<path d="M62.242 139.454L62.661 139.211L65.686 140.957L65.267 141.2L62.242 139.454Z" fill="#E3EAF0"/>
<path d="M65.592 141.388L66.011 141.144L68.944 142.837L68.525 143.081L65.592 141.388Z" fill="#E3EAF0"/>
<path d="M62.268 130.411L62.687 130.168L62.661 139.211L62.242 139.454L62.268 130.411Z" fill="#AFC0D1"/>
<path d="M68.85 143.269L69.269 143.025L72.2169 144.728L71.798 144.971L68.85 143.269Z" fill="#E3EAF0"/>
<path d="M65.617 132.344L66.036 132.101L66.011 141.144L65.592 141.388L65.617 132.344Z" fill="#AFC0D1"/>
<path d="M68.875 134.225L69.294 133.982L69.269 143.025L68.85 143.269L68.875 134.225Z" fill="#AFC0D1"/>
<path d="M61.928 129.883L62.347 129.64L72.59 135.554L72.172 135.798L61.928 129.883Z" fill="#E3EAF0"/>
<path d="M61.928 129.883L61.901 139.58L72.145 145.494L72.172 135.797L61.928 129.883ZM65.267 141.2L62.242 139.454L62.267 130.411L65.291 132.157L65.267 141.2ZM68.525 143.081L65.592 141.389L65.617 132.345L68.55 134.038L68.525 143.081ZM71.798 144.971L68.85 143.269L68.875 134.225L71.824 135.927L71.798 144.971Z" fill="#D1DCE6"/>
<path d="M72.172 135.798L72.59 135.554L72.563 145.252L72.145 145.495L72.172 135.798Z" fill="#AFC0D1"/>
</svg>
